<?xml version="1.0" encoding="UTF-8" standalone="no"?>
<svg
   xmlns:dc="http://purl.org/dc/elements/1.1/"
   xmlns:cc="http://creativecommons.org/ns#"
   xmlns:rdf="http://www.w3.org/1999/02/22-rdf-syntax-ns#"
   xmlns:svg="http://www.w3.org/2000/svg"
   xmlns="http://www.w3.org/2000/svg"
   xmlns:sodipodi="http://sodipodi.sourceforge.net/DTD/sodipodi-0.dtd"
   xmlns:inkscape="http://www.inkscape.org/namespaces/inkscape"
   inkscape:version="1.0.1 (3bc2e813f5, 2020-09-07)"
   id="svg8"
   version="1.1"
   viewBox="0 0 338.66666 338.66666"
   height="338.66666mm"
   width="338.66666mm"
   sodipodi:docname="blarg.svg"
   inkscape:export-filename="C:\Users\Chris\Dropbox\brewing\logo\logo.png"
   inkscape:export-xdpi="600"
   inkscape:export-ydpi="600">
  <defs
     id="defs2">
    <inkscape:path-effect
       effect="skeletal"
       id="path-effect1768"
       is_visible="true"
       lpeversion="1"
       pattern="M 0,5 C 0,2.24 2.24,0 5,0 7.76,0 10,2.24 10,5 10,7.76 7.76,10 5,10 2.24,10 0,7.76 0,5 Z"
       copytype="single_stretched"
       prop_scale="-0.0179376"
       scale_y_rel="false"
       spacing="0"
       normal_offset="0"
       tang_offset="0"
       prop_units="false"
       vertical_pattern="false"
       hide_knot="false"
       fuse_tolerance="0" />
    <inkscape:path-effect
       effect="skeletal"
       id="path-effect1743"
       is_visible="true"
       lpeversion="1"
       pattern="M 0,5 C 0,2.24 2.24,0 5,0 7.76,0 10,2.24 10,5 10,7.76 7.76,10 5,10 2.24,10 0,7.76 0,5 Z"
       copytype="single_stretched"
       prop_scale="-0.0179376"
       scale_y_rel="false"
       spacing="0"
       normal_offset="0"
       tang_offset="0"
       prop_units="false"
       vertical_pattern="false"
       hide_knot="false"
       fuse_tolerance="0" />
    <inkscape:path-effect
       effect="skeletal"
       id="path-effect1739"
       is_visible="true"
       lpeversion="1"
       pattern="M 0,5 C 0,2.24 2.24,0 5,0 7.76,0 10,2.24 10,5 10,7.76 7.76,10 5,10 2.24,10 0,7.76 0,5 Z"
       copytype="single_stretched"
       prop_scale="-0.0179376"
       scale_y_rel="false"
       spacing="0"
       normal_offset="0"
       tang_offset="0"
       prop_units="false"
       vertical_pattern="false"
       hide_knot="false"
       fuse_tolerance="0" />
  </defs>
  <sodipodi:namedview
     fit-margin-bottom="0"
     fit-margin-right="0"
     fit-margin-left="0"
     fit-margin-top="0"
     showborder="false"
     showgrid="false"
     inkscape:document-rotation="0"
     inkscape:current-layer="layer5"
     inkscape:document-units="px"
     inkscape:cy="522.93451"
     inkscape:cx="683.43339"
     inkscape:zoom="1"
     inkscape:pageshadow="2"
     inkscape:pageopacity="0"
     borderopacity="1.0"
     bordercolor="#666666"
     pagecolor="#262626"
     id="base"
     showguides="true"
     inkscape:guide-bbox="true"
     inkscape:window-width="1920"
     inkscape:window-height="1027"
     inkscape:window-x="1912"
     inkscape:window-y="22"
     inkscape:window-maximized="1"
     inkscape:lockguides="true">
    <sodipodi:guide
       position="164.79762,486.83331"
       orientation="1,0"
       id="guide906"
       inkscape:locked="true" />
  </sodipodi:namedview>
  <metadata
     id="metadata5">
    <rdf:RDF>
      <cc:Work
         rdf:about="">
        <dc:format>image/svg+xml</dc:format>
        <dc:type
           rdf:resource="http://purl.org/dc/dcmitype/StillImage" />
        <dc:title />
      </cc:Work>
    </rdf:RDF>
  </metadata>
  <g
     sodipodi:insensitive="true"
     transform="translate(219.22618,89.958336)"
     id="layer1"
     inkscape:groupmode="layer"
     inkscape:label="Canvas"
     style="display:none">
    <rect
       y="-89.958336"
       x="-219.22618"
       height="338.66666"
       width="338.66666"
       id="rect12"
       style="fill:#ffffff;stroke-width:0.264583" />
  </g>
  <g
     transform="translate(219.22618,89.958336)"
     inkscape:label="Content"
     id="layer2"
     inkscape:groupmode="layer"
     style="display:none"
     sodipodi:insensitive="true">
    <g
       id="layer3"
       inkscape:label="Content 1"
       style="display:none"
       transform="translate(-369.66069,-88.44643)">
      <path
         d="m 174.61614,298.78615 c 0.62363,-1.8709 0.0499,-3.84156 -1.92077,-6.4608 -3.69189,-4.93914 -6.11156,-11.30016 -6.85992,-17.83578 -0.19957,-1.5965 -0.39912,-5.73739 -0.4989,-9.22971 -0.0998,-3.44243 -0.22451,-8.00739 -0.29935,-10.12773 l -0.0998,-3.79167 4.9142,-0.57374 c 2.69408,-0.29935 5.23848,-0.59869 5.68749,-0.64858 1.49671,-0.14967 11.79906,-2.27001 13.96929,-2.84375 12.09839,-3.26781 24.54603,-8.93037 31.70529,-14.44325 0.7733,-0.57374 1.5466,-1.09758 1.67133,-1.12253 0.42406,-0.12473 5.28837,-4.44024 7.73299,-6.93475 9.52905,-9.57894 17.0126,-22.10142 21.20338,-35.42212 1.47177,-4.66474 1.7711,-6.66035 1.17242,-8.30674 -0.94791,-2.79385 -2.69407,-3.74177 -8.05728,-4.3654 -2.86869,-0.32428 -3.11814,-0.42407 -3.01836,-1.12253 0.59868,-3.99122 0.62363,-11.89884 0.12472,-18.53425 -0.72341,-9.45421 -4.96408,-27.11538 -7.25903,-30.30836 -1.39694,-1.89583 -4.31552,-2.86869 -6.63542,-2.19517 -0.54879,0.14966 -0.69846,-0.29935 -1.14747,-3.29277 -1.19737,-8.53124 -4.09101,-17.36182 -8.8306,-26.890873 -2.14527,-4.390341 -7.35881,-12.946531 -9.75355,-16.039734 -0.42403,-0.523875 -0.9978,-1.297145 -1.2722,-1.721211 -2.96848,-4.066062 -4.3654,-5.462987 -6.16147,-6.111553 -1.74617,-0.648562 -3.19298,-0.399116 -5.33826,0.798256 -2.96848,1.721211 -2.94353,1.696264 -3.29276,0.548793 -0.57374,-1.771112 -3.44243,-7.583332 -5.36321,-10.801254 -5.06387,-8.606077 -10.15268,-15.091816 -17.86073,-22.799871 -6.23629,-6.23629 -8.15707,-7.60827 -10.5518,-7.55838 -1.84594,0.0499 -2.81881,0.57374 -5.61266,2.96848 -5.18859,4.54001 -10.8262,10.576737 -14.91721,16.014784 -1.24726,1.646378 -2.66913,3.567156 -3.21792,4.265615 -1.94572,2.494524 -6.61046,10.701471 -8.45641,14.742586 -1.14747,2.594297 -1.99561,4.091008 -2.24506,4.041115 -0.2245,-0.07483 -1.17242,-0.573739 -2.0455,-1.147479 -2.02056,-1.272198 -3.91639,-1.671324 -5.6875,-1.147471 -1.14748,0.349226 -1.69627,0.748352 -3.46737,2.76891 -1.17243,1.322091 -2.41969,2.768909 -2.74397,3.242869 -7.63321,10.377188 -12.846746,20.08085 -16.413906,30.482978 -1.67132,4.81441 -3.41749,12.14829 -3.79166,15.86511 -0.17462,1.77112 -0.24945,1.94574 -0.87309,1.77112 -2.29495,-0.64858 -5.11375,0.2245 -6.48574,1.99561 -1.44681,1.84593 -4.19078,11.07565 -5.81222,19.53205 -1.7711,9.0551 -2.39473,18.65898 -1.7711,26.66637 0.14967,1.89583 0.24945,3.49232 0.19956,3.54221 -0.025,0.025 -1.49671,0.24946 -3.26782,0.47397 -1.7711,0.2245 -3.5921,0.54878 -4.01617,0.67352 -2.39473,0.74835 -4.04111,3.0433 -4.01616,5.51287 0.0499,1.69627 1.49671,6.93476 3.01836,10.85113 0.4989,1.29715 1.14748,2.99344 1.47176,3.76673 1.39693,3.64198 5.63761,11.47478 8.25684,15.19159 0.67352,0.97287 1.39694,2.04551 1.64638,2.39475 0.47396,0.72341 1.99562,2.64418 3.79167,4.88925 1.72122,2.07045 7.60827,8.00739 9.47916,9.47915 5.38817,4.24066 9.803456,7.15925 14.767546,9.67872 1.5466,0.79823 2.86869,1.47175 2.96848,1.52164 1.19736,0.64859 8.55618,3.51727 11.62443,4.54003 5.88706,1.94572 17.66117,4.63979 22.60031,5.13871 0.34924,0.0499 2.36979,0.27438 4.46519,0.47395 2.07044,0.22451 4.11595,0.42406 4.49013,0.4989 0.82319,0.12473 0.79824,-0.24946 1.09758,11.77411 0.22451,9.10499 0.5488,13.57016 1.37199,17.38678 1.64638,7.6332 6.11156,16.88786 10.02795,20.75436 2.99342,2.99342 8.18201,1.64638 9.60388,-2.46957 z m 43.42952,-78.20308 c -9.47916,8.03235 -23.37361,14.04413 -39.73763,17.13732 -4.6398,0.89803 -11.82401,1.84595 -12.99643,1.72123 -0.4989,-0.0499 -0.52385,-0.67352 -0.19956,-2.99343 0.72341,-5.16364 1.52165,-8.65596 3.11815,-13.44543 5.1387,-15.466 13.69488,-24.82043 27.71406,-30.25848 10.85114,-4.16584 24.34647,-5.88705 39.96214,-5.08881 1.99561,0.0998 3.79166,0.24946 3.94133,0.29934 0.32429,0.17462 -2.29495,6.43585 -4.54002,10.77631 -2.31989,4.46518 -6.23628,10.3273 -9.08003,13.66995 -1.17242,1.32209 -2.09539,2.44462 -2.0954,2.49452 -0.025,0.1746 -4.29056,4.19078 -6.08661,5.68748 z m 1.0477,-44.50216 c -7.88268,0.59869 -16.18941,2.02056 -21.57757,3.71684 -1.29714,0.44901 -2.39473,0.69846 -2.41967,0.57373 -2.0954,-6.78508 -5.06387,-13.79467 -8.05729,-18.7837 -1.12253,-1.821 -1.99561,-3.49232 -1.94572,-3.69188 0.12472,-0.7733 5.28837,-5.03892 9.32949,-7.733 8.05728,-5.36321 18.28479,-9.80344 29.03615,-12.62224 l 2.76892,-0.72341 0.4989,1.84594 c 3.49232,12.92159 4.68969,25.19461 3.41749,35.99585 l -0.0998,1.09759 -3.26782,0.0249 c -1.79605,0 -5.26342,0.12473 -7.6831,0.29934 z m -71.14359,63.06137 c -12.77191,-1.5965 -23.77273,-4.56497 -33.32673,-8.98026 -8.70585,-4.06606 -11.82399,-6.1864 -18.634016,-12.79686 -5.01398,-4.86431 -5.7374,-5.68748 -9.47916,-10.92599 -2.61924,-3.66693 -6.48575,-11.12554 -8.40652,-16.1894 l -0.87307,-2.36979 2.66913,-0.17461 c 11.3251,-0.79825 23.722826,0.12471 33.301776,2.46956 6.31111,1.57155 14.66774,5.08881 18.13512,7.70805 0.7733,0.57374 1.69627,1.24726 2.0455,1.44683 0.94792,0.64857 6.28618,6.03672 7.00957,7.05949 5.58772,7.98245 8.65597,14.89226 10.55181,23.62306 0.82318,3.9164 1.64638,9.3295 1.44682,9.52906 -0.12474,0.0748 -2.0954,-0.0998 -4.44024,-0.39912 z m 9.20476,-27.51452 c -1.54659,-3.19298 -3.79166,-7.18421 -5.16364,-9.10498 -0.39912,-0.54879 -0.94792,-1.34704 -1.24726,-1.74616 -3.04331,-4.58991 -9.67872,-10.67652 -15.36621,-14.16885 l -2.3698,-1.47176 0.5488,-1.74616 c 1.29715,-4.44024 1.72122,-5.61266 2.89364,-8.28179 2.71902,-6.11156 5.73739,-11.12554 10.82619,-17.96052 1.14748,-1.54659 4.88925,-5.73738 8.05729,-9.05509 2.44459,-2.54443 2.96847,-2.96847 3.46737,-2.8188 0.34924,0.0998 2.04551,1.69627 3.79167,3.49232 5.912,6.16145 9.17981,10.42708 13.71984,17.71106 2.56935,4.16584 5.46298,10.50191 6.6853,14.76753 1.29715,4.44024 1.42187,3.81662 -1.07265,5.31332 -1.22231,0.72341 -2.94352,1.89583 -3.84155,2.64419 -0.89803,0.74836 -2.44462,1.99561 -3.41748,2.8188 -1.87089,1.52165 -5.56278,5.26343 -6.4608,6.51069 -0.29934,0.39911 -0.94791,1.29714 -1.49671,1.99561 -2.51946,3.36759 -7.05948,11.30016 -7.58333,13.32072 -0.32428,1.17241 -0.47395,0.97286 -1.97066,-2.22013 z m 50.26448,-81.14658 c -2.49451,0.94791 -6.23628,2.59429 -8.33167,3.64199 -2.09539,1.04769 -3.8665,1.92077 -3.91639,1.97066 -0.0749,0.025 -0.62363,-1.47176 -1.22231,-3.26781 -0.59869,-1.84594 -1.47176,-4.21573 -1.92078,-5.26343 -0.44901,-1.04769 -0.94792,-2.24506 -1.09758,-2.64418 -1.07265,-2.76892 -4.93915,-9.52905 -7.40872,-13.04632 -0.9978,-1.44681 -2.02056,-2.91858 -2.24507,-3.24287 -0.39912,-0.5488 -1.02274,-1.37198 -3.69187,-4.78947 -0.59869,-0.74835 -1.09759,-1.4967 -1.0976,-1.59648 -0.0249,-0.47396 6.85992,-7.608283 9.15488,-9.504107 0.52388,-0.424038 1.89583,-1.546606 3.01836,-2.469578 2.24507,-1.895824 8.53125,-6.385952 9.05509,-6.510679 0.19956,-0.04989 0.49891,0.149667 0.64857,0.449013 0.17462,0.324286 0.64858,0.997806 1.0477,1.546591 8.85553,12.1483 15.466,28.23792 16.36402,39.86237 l 0.14967,1.94572 -2.02055,0.57373 c -1.09759,0.34924 -4.01617,1.37199 -6.48575,2.34485 z m -28.46241,17.03754 -0.99781,0.89802 -2.34484,-2.69408 c -4.4153,-5.06386 -12.39774,-12.74698 -14.29358,-13.79467 -1.37198,-0.72341 -3.56715,-0.8232 -4.83935,-0.24945 -2.14529,0.94791 -8.43147,6.88486 -14.29358,13.44543 l -2.96847,3.31771 -1.87089,-1.72121 c -1.02277,-0.97285 -2.49452,-2.34485 -3.24287,-3.04331 l -1.372,-1.32208 0.69847,-2.79386 c 1.99561,-8.08223 6.58552,-16.81303 13.79467,-26.36703 1.67132,-2.22011 2.44462,-3.09319 6.9597,-7.95749 l 4.41529,-4.76453 4.54002,4.88924 c 4.98902,5.33827 5.33826,5.73739 9.15486,11.00082 5.6875,7.78289 10.22752,17.16226 11.84895,24.4712 l 0.42407,1.7711 -2.31989,2.02056 c -1.29716,1.09759 -2.76892,2.41968 -3.29277,2.89364 z m -58.37167,32.52848 c -3.46737,-1.22232 -16.1395,-3.66694 -19.90623,-3.79167 -0.52384,-0.0249 -1.771096,-0.12473 -2.793846,-0.19956 -1.02276,-0.0748 -3.74177,-0.19956 -6.11156,-0.27439 -2.34485,-0.0499 -4.3654,-0.17462 -4.49013,-0.29935 -0.12472,-0.12473 -0.24945,-0.54879 -0.24945,-0.89802 0,-0.34923 -0.0748,-1.22232 -0.19956,-1.94572 -0.2744,-2.17023 -0.32429,-8.65597 -0.0499,-12.52247 0.34923,-5.93694 1.27219,-11.69928 2.74397,-17.56139 0.42406,-1.7711 0.92297,-3.76672 1.12253,-4.46518 l 0.29934,-1.24726 2.12034,0.47395 c 11.175426,2.64419 24.471186,8.70587 32.628256,14.91721 2.79386,2.14528 6.56057,5.51288 6.53563,5.88705 0,0.0998 -0.79825,1.5965 -1.821,3.31771 -2.64419,4.58991 -4.96408,9.60388 -6.66035,14.49314 -0.79825,2.39474 -1.52166,4.41529 -1.5965,4.49013 -0.0748,0.0748 -0.74836,-0.0998 -1.57155,-0.37418 z m 52.8089,-91.473876 -5.18859,5.188594 -1.6464,-1.596478 c -1.74618,-1.69625 -3.49233,-3.192976 -5.01398,-4.315508 -1.39693,-0.997812 -4.66475,-0.873086 -6.13651,0.24945 -1.74616,1.347038 -3.46737,2.818803 -4.91419,4.215728 l -1.32211,1.272184 -4.29057,-4.290568 c -2.36978,-2.369784 -5.03892,-4.889241 -5.88705,-5.587707 -0.87308,-0.723412 -2.24506,-1.845944 -3.09319,-2.494517 l -1.49672,-1.247258 0.97286,-2.66913 c 1.5466,-4.240682 4.96409,-10.901031 7.50849,-14.54302 0.32429,-0.473966 1.0477,-1.546605 1.62143,-2.36979 1.37199,-2.070451 2.31991,-3.317703 4.04112,-5.338268 0.79825,-0.947912 1.84595,-2.19517 2.3199,-2.818803 1.42187,-1.771097 7.45861,-7.807831 7.78287,-7.832792 0.5488,0 7.90763,7.85771 10.30235,10.950921 0.39912,0.548792 1.14748,1.496719 1.62144,2.120344 0.47396,0.623626 1.62143,2.170224 2.51945,3.467376 0.87308,1.322092 1.84595,2.694077 2.12035,3.118143 1.9956,2.793857 5.96189,10.851141 7.08442,14.318516 l 0.4989,1.596492 -2.12034,1.721218 c -1.14747,0.947919 -4.44023,4.041115 -7.28398,6.884866 z m -55.0789,45.599736 c -4.16584,-2.07044 -9.35443,-4.16584 -13.89445,-5.66255 l -3.11814,-1.02275 0.0748,-1.22231 c 0.0748,-1.22232 1.17243,-7.75795 1.5466,-9.22971 1.14748,-4.58991 3.46738,-10.95093 5.56277,-15.39116 1.44682,-2.993418 4.04112,-7.83278 4.76453,-8.855532 0.29934,-0.449013 0.77329,-1.222312 1.07264,-1.771111 0.57373,-1.022745 2.22012,-3.517263 3.56716,-5.363207 0.44901,-0.598679 0.9978,-1.347032 1.19736,-1.646378 0.22454,-0.324244 0.52388,-0.424038 0.67352,-0.2744 0.17462,0.17462 1.42187,1.072646 2.79386,2.045511 5.43804,3.791662 8.70586,6.560572 13.84455,11.799053 l 4.71462,4.764544 -0.59866,0.64859 c -0.6985,0.7982 -3.0932,3.74176 -4.46518,5.51288 -1.49671,1.94572 -5.76234,8.75575 -7.43365,11.92378 -1.82101,3.41748 -4.46519,9.75356 -5.38816,12.92158 -0.37418,1.27221 -0.82319,2.3698 -0.97286,2.46958 -0.14963,0.0499 -1.92078,-0.67352 -3.94134,-1.64638 z"
         id="path4"
         style="display:inline;fill:#bf616a;fill-opacity:1;stroke:none;stroke-width:0.0352778" />
    </g>
    <g
       id="g950"
       transform="translate(1.1235869e-8,-12.213812)">
      <g
         transform="translate(6.1463248)"
         inkscape:label="Content"
         id="g932"
         style="display:inline">
        <g
           id="g930">
          <path
             id="path908"
             style="opacity:1;fill:none;fill-opacity:1;stroke:#000000;stroke-width:9.99999;stroke-miterlimit:4;stroke-dasharray:none;stroke-opacity:1"
             d="m 599.62695,167.79297 a 220.65103,227.42905 0 0 0 -92.55664,185.17969 220.65103,227.42905 0 0 0 0.0664,5.49218 227.42905,220.65103 79.056261 0 1 48.8125,63.02149 220.65103,227.42905 0 0 1 43.67773,-42.4336 220.65103,227.42905 0 0 1 43.92188,42.74805 220.65103,227.42905 10.943739 0 1 48.55859,-62.95508 220.65103,227.42905 0 0 0 0.0742,-5.87304 220.65103,227.42905 0 0 0 -92.55469,-185.17969 z"
             transform="matrix(0.26458333,0,0,0.26458333,-219.22618,-89.958336)" />
          <path
             id="path910"
             style="opacity:1;fill:none;fill-opacity:1;stroke:#000000;stroke-width:9.99999;stroke-miterlimit:4;stroke-dasharray:none;stroke-opacity:1"
             d="m 343.74805,517.19922 a 227.42905,220.65103 56.482647 0 0 5.36523,169.0918 227.42905,220.65103 38.012437 0 1 156.73633,48.94921 227.42905,220.65103 38.012437 0 1 1.22656,0.9668 220.65103,227.42905 0 0 1 -0.006,-1.5625 220.65103,227.42905 0 0 1 23.52539,-102.17969 227.42905,220.65103 56.482647 0 0 -7.42773,-11.98632 227.42905,220.65103 56.482647 0 0 -179.41992,-103.2793 z"
             transform="matrix(0.26458333,0,0,0.26458333,-219.22618,-89.958336)" />
          <path
             id="path912"
             style="opacity:1;fill:none;fill-opacity:1;stroke:#000000;stroke-width:9.99999;stroke-miterlimit:4;stroke-dasharray:none;stroke-opacity:1"
             d="m 855.0332,517.10547 a 220.65103,227.42905 33.517353 0 0 -179.41992,103.27734 220.65103,227.42905 33.517353 0 0 -7.19922,11.58789 220.65103,227.42905 0 0 1 23.76758,102.67383 220.65103,227.42905 0 0 1 -0.006,1.58594 220.65103,227.42905 51.987563 0 1 1.25195,-0.98438 220.65103,227.42905 51.987563 0 1 156.20899,-48.98047 220.65103,227.42905 33.517353 0 0 5.39648,-169.16015 z"
             transform="matrix(0.26458333,0,0,0.26458333,-219.22618,-89.958336)" />
          <path
             id="path914"
             style="opacity:1;fill:none;fill-opacity:1;stroke:#000000;stroke-width:9.99999;stroke-miterlimit:4;stroke-dasharray:none;stroke-opacity:1"
             d="m 452.67578,321.9668 a 227.42905,220.65103 79.056261 0 0 -55.7168,199.38281 227.42905,220.65103 79.056261 0 0 1.09571,5.33984 227.42905,220.65103 56.482647 0 1 112.22265,76.16993 220.65103,227.42905 0 0 1 -3.20703,-38.62696 220.65103,227.42905 0 0 1 48.87891,-142.74804 227.42905,220.65103 79.056261 0 0 -103.27344,-99.51758 z"
             transform="matrix(0.26458333,0,0,0.26458333,-219.22618,-89.958336)" />
          <path
             id="path916"
             style="opacity:1;fill:none;fill-opacity:1;stroke:#000000;stroke-width:9.99999;stroke-miterlimit:4;stroke-dasharray:none;stroke-opacity:1"
             d="m 746.98633,321.9668 a 220.65103,227.42905 10.943739 0 0 -103.4375,99.83203 220.65103,227.42905 0 0 1 48.63281,142.43359 220.65103,227.42905 0 0 1 -3.06445,37.77344 220.65103,227.42905 33.517353 0 1 112.57422,-75.70508 220.65103,227.42905 10.943739 0 0 1.01171,-4.95117 220.65103,227.42905 10.943739 0 0 -55.71679,-199.38281 z"
             transform="matrix(0.26458333,0,0,0.26458333,-219.22618,-89.958336)" />
          <path
             id="path918"
             style="opacity:1;fill:none;fill-opacity:1;stroke:#000000;stroke-width:9.99999;stroke-miterlimit:4;stroke-dasharray:none;stroke-opacity:1"
             d="m 599.62695,379.05273 a 220.65103,227.42905 0 0 0 -92.55664,185.17969 220.65103,227.42905 0 0 0 3.20703,38.625 227.42905,220.65103 56.482647 0 1 12.89063,17.6211 227.42905,220.65103 56.482647 0 1 7.42773,11.98437 220.65103,227.42905 0 0 1 69.03125,-82.99609 220.65103,227.42905 0 0 1 68.78907,82.50195 220.65103,227.42905 33.517353 0 1 7.19726,-11.58594 220.65103,227.42905 33.517353 0 1 13.50391,-18.375 220.65103,227.42905 0 0 0 3.06445,-37.77539 220.65103,227.42905 0 0 0 -92.55469,-185.17969 z"
             transform="matrix(0.26458333,0,0,0.26458333,-219.22618,-89.958336)" />
          <path
             id="path920"
             style="opacity:1;fill:none;fill-opacity:1;stroke:#000000;stroke-width:9.99999;stroke-miterlimit:4;stroke-dasharray:none;stroke-opacity:1"
             d="m 599.62695,549.4668 a 220.65103,227.42905 0 0 0 -92.55664,185.17773 220.65103,227.42905 0 0 0 0.006,1.56055 227.42905,220.65103 38.012437 0 1 87.76953,180.0039 220.65103,227.42905 0 0 0 4.78125,3.61524 220.65103,227.42905 0 0 0 4.80469,-3.63477 220.65103,227.42905 51.987563 0 1 87.74414,-179.95703 220.65103,227.42905 0 0 0 0.006,-1.58789 220.65103,227.42905 0 0 0 -92.55469,-185.17773 z"
             transform="matrix(0.26458333,0,0,0.26458333,-219.22618,-89.958336)" />
          <path
             id="path922"
             style="opacity:1;fill:none;fill-opacity:1;stroke:#000000;stroke-width:2.64583;stroke-miterlimit:4;stroke-dasharray:none;stroke-opacity:1"
             d="m -61.865359,154.04085 a 60.173936,58.380583 38.012437 0 0 -23.521326,-49.46704 60.173936,58.380583 38.012437 0 0 -53.683265,-10.878782 60.173936,58.380583 38.012437 0 0 23.52133,49.467042 60.173936,58.380583 38.012437 0 0 53.683261,10.87878 z" />
          <path
             id="path924"
             style="opacity:1;fill:none;fill-opacity:1;stroke:#000000;stroke-width:2.64583;stroke-miterlimit:4;stroke-dasharray:none;stroke-opacity:1"
             d="M -59.278137,154.04267 A 58.380583,60.173936 51.987563 0 1 -35.756807,104.57563 58.380583,60.173936 51.987563 0 1 17.926458,93.696851 58.380583,60.173936 51.987563 0 1 -5.5948731,143.16389 58.380583,60.173936 51.987563 0 1 -59.278137,154.04267 Z" />
          <path
             id="path926"
             style="opacity:1;fill:none;stroke:#000000;stroke-width:9.99999;stroke-miterlimit:4;stroke-dasharray:none"
             d="m 605.1875,897.33203 -10.87109,2.98438 a 227.42905,220.65103 38.012437 0 1 0.43359,21.88476 227.42905,220.65103 38.012437 0 1 -13.74609,3.38672 c 5.84464,23.65005 14.62179,59.89886 14.07031,62.2207 -0.71556,3.47071 25.88476,131.93751 25.88476,131.93751 l 22.83594,-1.1758 c 0,0 -8.40674,-41.2729 -13.76758,-95.8242 -3.5494,4.554 -5.57226,7.7422 -5.57226,7.7422 l -8.31055,-35.44338 c 0,0 5.25603,-4.74272 10.88867,-10.26758 -0.014,-0.23982 -0.0292,-0.47674 -0.043,-0.71679 -2.09839,-36.63373 11.05998,-49.8448 24.5918,-53.96485 a 220.65103,227.42905 51.987563 0 1 -47.05469,-7.88672 220.65103,227.42905 51.987563 0 1 0.66016,-24.87695 z m 72.6582,32.79102 a 220.65103,227.42905 51.987563 0 1 -1.30664,0.0703 c 1.15001,0.30748 1.90039,0.54883 1.90039,0.54883 l -0.002,-0.004 z"
             transform="matrix(0.26458333,0,0,0.26458333,-219.22618,-89.958336)" />
          <path
             d="m -54.005977,182.69185 c 0,0 4.425334,-7.0274 10.541647,-9.7411 6.103527,-2.72097 12.433947,-3.88224 12.433947,-3.88224 0,0 -17.851185,-3.38131 -19.657856,-1.24622 -1.797061,2.1401 -5.516469,5.49187 -5.516469,5.49187"
             fill="#3f7f00"
             stroke="#ffffff"
             stroke-linecap="round"
             stroke-linejoin="round"
             stroke-width="0.170656"
             id="path928"
             style="opacity:1;fill:none;stroke:#000000;stroke-width:2.64583;stroke-miterlimit:4;stroke-dasharray:none" />
        </g>
      </g>
      <path
         d="m -92.883911,203.80821 c -1.368079,-1.51168 -1.513107,-3.82544 -1.01664,-16.216 0.513808,-12.82344 0.337296,-15.33124 -1.565835,-22.24569 -3.12771,-11.36364 -5.755194,-15.80061 -17.249934,-29.12963 -11.30511,-13.10912 -17.68068,-22.50798 -19.96906,-29.43828 -1.41823,-4.29515 -1.6785,-4.51349 -5.97982,-5.01728 -2.47337,-0.28969 -5.80543,-1.39776 -7.40452,-2.462377 l -2.90748,-1.935631 6.65257,-1.030302 c 7.77459,-1.204129 10.81081,-3.429621 10.81081,-7.924109 0,-4.033355 -4.34727,-8.184466 -9.55794,-9.126683 -8.6542,-1.56493 -9.88194,-4.189837 -2.16748,-4.634001 l 5.23905,-0.301626 0.84781,-4.989543 c 2.59478,-15.270706 9.78835,-31.022038 21.62519,-47.351476 9.52669,-13.1424368 14.42289,-18.2584796 29.382185,-30.7015503 15.68565,-13.0472517 19.492704,-17.8335217 22.630513,-28.4514167 2.534444,-8.576268 3.774241,-9.765545 10.151948,-9.738191 5.863558,0.02545 7.436239,0.928526 8.139147,4.675357 0.361906,1.929043 1.146337,4.694338 1.743224,6.145072 0.596859,1.450736 1.239882,3.43392 1.428898,4.407054 0.639544,3.292624 6.09622,13.165039 10.880596,19.68568 6.2234,8.4818174 7.645876,9.9817151 15.73849,16.5951161 8.2968772,6.7802889 20.6173185,22.0313349 28.344067,35.0860539 6.06601,10.248831 7.437229,13.435944 9.288793,21.589405 0.632642,2.78586 1.574095,6.749145 2.092118,8.807346 l 0.941877,3.742136 h 6.946872 c 3.820802,0 6.9469,0.4236 6.9469,0.94134 0,1.9844 -4.616633,4.048202 -9.055622,4.048202 -8.675132,0 -15.104462,6.950776 -11.831724,12.791253 1.455148,2.596844 1.802373,2.684765 11.692466,2.960703 7.722563,0.215552 10.192795,0.609083 10.192795,1.624165 0,2.582163 -3.167228,4.012133 -8.709049,3.932023 -5.280844,-0.0763 -5.570985,0.058 -7.619399,3.52645 -1.171229,1.98319 -2.017977,3.94258 -1.881689,4.35422 0.136344,0.41163 -0.202536,0.74842 -0.752722,0.74842 -1.202854,0 -6.902432,6.20631 -12.7362045,13.86851 -2.3411294,3.07489 -5.186336,6.68258 -6.3227158,8.01708 -5.4335658,6.38099 -15.9073097,24.01818 -14.2630047,24.01818 0.350874,0 0.183866,0.56133 -0.371072,1.24737 -1.881265,2.32575 -3.244451,12.16755 -4.070379,29.38719 -0.840751,17.52827 -1.527082,20.25874 -5.09231,20.25874 -3.881337,0 -7.958788,-7.02018 -13.040999,-22.45292 -3.96023,-12.0256 -4.678243,-13.20295 -10.681031,-17.51385 -3.915536,-2.81188 -5.534325,-3.35969 -9.748092,-3.29879 -2.779071,0.0402 -6.422117,0.78112 -8.095698,1.64654 -7.037844,3.63939 -13.532772,13.89519 -19.405439,30.64203 -2.29505,6.54468 -5.30585,10.97699 -7.456466,10.97699 -0.642542,0 -1.886328,-0.79347 -2.763994,-1.76328 z m 5.055508,-1.47992 c 0.560879,-0.68605 2.593452,-5.33439 4.516808,-10.32965 8.357157,-21.70465 14.929846,-29.90376 25.102726,-31.31444 l 4.032928,-0.55926 -0.278912,-4.46972 c -0.302502,-4.84923 -0.288557,-4.83424 -9.174682,-9.87646 -3.306175,-1.876 -5.791258,-3.63094 -5.52236,-3.89981 0.269011,-0.269 -0.0085,-1.08719 -0.614538,-1.81843 -1.133128,-1.36534 -5.478967,-0.90423 -7.311579,0.7758 -0.521417,0.478 -1.803645,0.86907 -2.849421,0.86907 -1.733352,0 -18.215253,4.6768 -19.848523,5.63208 -0.381774,0.22319 0.61863,3.18177 2.22311,6.57441 4.945273,10.45678 6.339659,19.11078 5.594491,34.72084 -0.357069,7.48017 -0.34714,13.90241 0.02263,14.27164 1.057911,1.05791 2.993941,0.78641 4.107776,-0.57607 z m 68.036004,-0.66573 c 0.563141,-1.05223 1.471187,-9.92113 2.017893,-19.70869 1.069707,-19.15054 1.594717,-21.92622 6.007598,-31.76174 l 2.8813572,-6.42195 -3.1860102,-0.53568 c -1.752277,-0.29461 -7.22751,-1.15587 -12.167154,-1.91387 l -8.98117,-1.37822 -2.840766,3.40521 c -3.292964,3.94725 -9.130498,7.19292 -13.541456,7.529 -2.920818,0.22262 -3.076963,0.4509 -3.076963,4.49941 0,3.9296 0.274103,4.37948 3.486816,5.72181 1.917784,0.80129 5.644163,3.61422 8.280894,6.25096 3.803151,3.80311 5.160142,6.09871 6.56508,11.10593 3.755771,13.38542 9.707953,25.12094 12.741184,25.12094 0.433869,0 1.249585,-0.8609 1.812697,-1.91311 z m -23.173457,-55.16708 c 4.632049,-2.78326 7.251213,-6.54452 7.251213,-10.41316 v -3.35811 h -15.467584 c -17.0709,0 -17.067676,-7.4e-4 -13.864608,6.19263 1.857617,3.59224 3.86428,5.74634 7.419805,7.96487 4.985327,3.11071 9.01817,3.00447 14.661174,-0.38623 z m -53.12223,-1.89702 c 2.195399,-0.59811 5.338809,-1.66595 6.985376,-2.37296 1.646538,-0.70701 6.137124,-2.13746 9.979057,-3.17874 6.836438,-1.85286 6.991226,-1.96703 7.259812,-5.35526 0.151053,-1.90413 0.936814,-7.47045 1.746336,-12.36961 2.050253,-12.40753 1.924799,-13.92424 -1.457977,-17.6279 l -2.92987,-3.20779 -22.092234,0.55952 c -12.150724,0.30773 -22.216034,0.71315 -22.367314,0.90091 -0.15133,0.18782 0.12503,4.60747 0.61409,9.82153 1.3188,14.0603 3.05705,19.15391 8.43424,24.71483 2.51207,2.59789 5.24334,5.73383 6.06951,6.96873 1.71313,2.56073 2.26781,2.6427 7.758974,1.14674 z m 90.5039852,-5.63732 c 0.891866,-1.50932 4.3780311,-6.23981 7.7470592,-10.51219 5.9791113,-7.58229 6.1480706,-7.96388 7.0682515,-15.96651 0.5185314,-4.50923 0.9461771,-8.99305 0.9503351,-9.96404 0.0057,-1.64397 -1.5199535,-1.74696 -22.195881,-1.49684 l -22.203463,0.26844 0.122483,7.48431 c 0.06732,4.11637 0.46439,12.46716 0.882474,18.55727 l 0.760133,11.07298 9.096611,1.49681 c 14.2731882,2.34857 15.8789642,2.26362 17.7721392,-0.94035 z m -52.1096582,-8.23273 c 7.120017,0 8.474236,-1.85566 4.432737,-6.07407 -3.108673,-3.24476 -4.247768,-10.0442 -2.515293,-15.01403 0.980715,-2.81327 0.812181,-3.96226 -1.217677,-8.30244 -1.29575,-2.770504 -3.630176,-8.316432 -5.18761,-12.324237 -1.557405,-4.00784 -3.133622,-7.473609 -3.502656,-7.701688 -0.369062,-0.227995 -1.585269,2.719385 -2.702668,6.549915 l -2.031668,6.964618 2.750841,1.958767 c 4.393193,3.128249 4.807713,12.390255 1.403807,31.366205 -0.619235,3.45211 -0.498194,3.8315 1.034913,3.24319 0.954918,-0.36643 4.345784,-0.66623 7.535274,-0.66623 z m 20.970396,-1.2474 c -0.0057,-0.68605 -0.679513,-3.45177 -1.49687,-6.14604 -0.81733,-2.69427 -1.49294,-7.63391 -1.501313,-10.97696 -0.01414,-6.07041 -1.182658,-9.70366 -2.647224,-8.2391 -0.426344,0.42635 -0.637763,4.06781 -0.469822,8.09214 0.312884,7.49672 -0.927168,11.68338 -4.286211,14.47111 -3.28691,2.72791 -1.845228,4.04625 4.424789,4.04625 4.130462,0 5.984091,-0.38688 5.976651,-1.2474 z m -82.599987,-14.96861 -1.55755,-12.72333 h -5.31645 c -6.16055,0 -6.4979,0.7928 -3.3184,7.7988 1.93106,4.25506 11.04155,18.43901 11.50858,17.91742 0.13266,-0.14822 -0.45953,-5.99507 -1.31618,-12.99289 z m 83.787708,3.59629 c -1.229953,-7.6089 -1.356086,-15.46724 -0.275799,-17.18489 0.689358,-1.096099 7.794808,-1.461547 36.15262194,-1.859374 C 19.75321,98.792017 36.309369,98.18475 37.132639,97.714733 38.937416,96.68446 4.4551512,96.526617 -19.139587,97.457041 c -15.126612,0.596598 -16.771198,0.838001 -17.714433,2.600499 -1.332438,2.48969 -1.211172,15.66827 0.192069,20.87979 1.548778,5.75176 2.23477,4.02879 1.126254,-2.82875 z m 53.058495,-8.59926 c 3.101488,-3.71212 5.639072,-7.19232 5.639072,-7.73379 0,-0.54144 -2.461293,-0.98448 -5.46949,-0.98448 -6.203175,0 -5.911902,-0.45582 -7.014563,10.977 -0.381651,3.9574 -0.268446,6.09732 0.290169,5.48849 0.503653,-0.54884 3.453324,-4.0351 6.554812,-7.74722 z m -83.883514,4.25453 c 0.287059,-1.09769 0.114847,-1.9958 -0.382554,-1.9958 -0.497487,0 -0.904482,0.89811 -0.904482,1.9958 0,1.09771 0.172268,1.99583 0.382555,1.99583 0.210456,0 0.617424,-0.89812 0.904481,-1.99583 z m 0.150205,-8.36446 c -0.360632,-1.43687 -1.017064,-2.61252 -1.458739,-2.61252 -0.441677,0 -0.301033,1.33004 0.312573,2.95564 1.336681,3.54128 2.066263,3.32287 1.146166,-0.34312 z M -46.64576,91.324436 c 1.621307,-5.400159 2.947861,-10.606041 2.947861,-11.568653 0,-0.962611 0.512252,-1.920923 1.13836,-2.129626 0.720672,-0.240158 0.166894,-1.918406 -1.509402,-4.57375 -2.519877,-3.99177 -2.882688,-4.194306 -7.5142,-4.194306 -5.427739,0 -7.607688,1.406862 -10.823966,6.985371 l -2.013677,3.492671 4.416982,10.478043 c 2.429357,5.762919 4.871359,11.563584 5.426636,12.890374 1.008097,2.40874 1.012538,2.40938 2.996599,0.42535 1.092818,-1.09284 3.313501,-6.405288 4.934807,-11.805474 z m 7.043501,7.481987 3.786603,-3.98057 -1.534833,-5.168318 c -2.136217,-7.193484 -3.331943,-10.176816 -3.865127,-9.643631 -0.250625,0.250624 -1.834818,5.098222 -3.520535,10.772543 -2.439653,8.212211 -2.79907,10.485563 -1.76178,11.143463 2.16855,1.37538 2.954791,1.01925 6.895672,-3.123487 z m -29.043353,1.226897 c 0,-2.289709 -4.404564,-3.103504 -15.114645,-2.792596 -6.231462,0.180752 -22.556383,0.386995 -36.277603,0.45808 -17.38066,0.08996 -24.49367,0.439417 -23.45084,1.151972 0.9713,0.663643 13.82509,0.927955 36.60955,0.752718 19.311951,-0.148506 35.440634,0.05798 35.84152,0.458816 0.952796,0.95282 2.392018,0.93534 2.392018,-0.0291 z m -53.939508,-7.973843 c 1.31954,-4.751479 1.32478,-7.851239 0.0169,-10.294174 -0.80837,-1.510421 -2.11048,-1.930203 -5.98747,-1.930203 -2.72493,0 -4.9544,0.449059 -4.9544,0.997914 0,0.548828 0.37316,0.997887 0.82926,0.997887 2.6954,0 4.42431,9.116301 2.15863,11.381987 -1.84866,1.848655 -1.00451,2.588726 2.95263,2.588726 3.70834,0 4.00702,-0.22431 4.98397,-3.742137 z m 51.329764,-1.496868 c 0.79071,-2.881444 1.709902,-6.473913 2.0427,-7.983259 l 0.605063,-2.74425 h -51.632257 l 0.10098,4.74005 c 0.0554,2.607062 -0.27156,6.19953 -0.72672,7.983289 l -0.82771,3.243175 h 49.000306 z M 6.6671787,89.814186 c 0.043559,-3.018667 0.4534138,-6.723404 0.9108449,-8.23275 l 0.8316428,-2.74425 H -14.484089 c -12.591544,0 -23.163075,0.269294 -23.492253,0.598528 -0.329177,0.329178 -0.193484,1.564082 0.301739,2.74425 0.495138,1.18014 1.622297,4.736999 2.504771,7.904105 l 1.604476,5.758389 20.076693,-0.269855 20.0766662,-0.269856 0.0792,-5.488505 z m 10.0018833,3.243177 c -1.586146,-3.85279 -1.673496,-5.381543 -0.473188,-8.279394 0.689528,-1.664585 2.189794,-3.682251 3.333981,-4.483655 1.938094,-1.3575 1.725771,-1.457128 -3.105618,-1.457128 -4.733487,0 -5.318805,0.256848 -6.7084676,2.944184 -1.5310708,2.960787 -2.0968991,11.117394 -0.8572143,12.35707 0.3658945,0.365902 2.4347319,0.665289 4.5973699,0.665289 3.353441,0 3.826261,-0.25685 3.213137,-1.746366 z m -81.78984,-16.267997 c 0.450444,-0.728846 -11.120669,-0.99435 -37.840352,-0.868189 -21.51956,0.10155 -38.25263,0.564498 -37.95264,1.049906 0.80052,1.295268 74.99009,1.117399 75.792992,-0.181603 z m 97.762803,-0.425608 c 0.548855,-0.199425 -15.531486,-0.39817 -35.7340839,-0.441506 -20.2026001,-0.04328 -36.5139901,0.274103 -36.2475261,0.705142 0.46176,0.74712 69.90058,0.492791 71.98161,-0.263636 z M -123.77719,73.598179 c 0.54759,-0.686048 5.61531,-10.308121 11.26157,-21.382343 11.53833,-22.630627 11.20108,-19.970701 3.63063,-28.63681 l -3.37715,-3.865891 -5.62651,8.456104 c -3.09456,4.650861 -7.61456,12.67734 -10.04441,17.836606 -4.44759,9.443495 -8.39333,24.263079 -7.252,27.237331 0.76022,1.981091 9.88336,2.264981 11.40787,0.355003 z m 40.927553,0.348526 20.223758,-0.099 1.604702,-3.365068 1.604701,-3.365067 -10.237657,-17.092031 -10.23763,-17.092003 h -20.329817 l -4.57768,8.232721 c -7.54339,13.566434 -16.67686,32.407459 -16.02566,33.058657 0.33495,0.334949 4.46606,0.431691 9.18023,0.214983 4.71419,-0.21668 17.67195,-0.438564 28.795053,-0.493073 z M 9.1912117,73.374682 c 0,-0.745423 -5.8516492,-15.281907 -6.9366029,-17.231684 -0.536975,-0.965016 -2.90064946,-6.792707 -5.252613,-12.950452 l -4.2762816,-11.195914 -9.4801012,0.01131 -9.480127,0.01131 -9.353883,16.039636 c -5.144641,8.821829 -9.569487,16.864092 -9.832982,17.871738 -0.263636,1.007645 0.4961,3.201625 1.688036,4.875545 l 2.167163,3.043472 h 25.378668 c 13.9582961,8.5e-5 25.3787237,-0.21272 25.3787237,-0.472905 z M 22.164011,72.308709 c 0,-3.767169 -3.262839,-16.78353 -5.442759,-21.712765 C 14.134251,44.746303 7.4098002,33.396252 3.4664586,28.223523 l -2.4494127,-3.213054 -3.4545401,3.662904 -3.4545686,3.662875 7.6847707,18.510433 c 4.226638,10.180688 8.1414941,19.520766 8.6997131,20.755671 0.868529,1.921404 1.783589,2.245292 6.343281,2.245292 4.135723,0 5.328309,-0.344424 5.328309,-1.538935 z M -38.903453,49.981293 -28.786326,33.100312 -40.149559,4.8259739 c -8.485098,-21.1128559 -11.782758,-28.2743429 -13.019529,-28.2743429 -1.154314,0 -3.628705,4.234049 -8.164549,13.9707136 -3.579541,7.6838927 -8.966519,19.1348771 -11.971095,25.4466454 -3.004548,6.311769 -5.518653,12.160987 -5.586882,12.998258 -0.06817,0.837299 4.768592,9.706199 10.748496,19.708677 l 10.872505,18.186377 h 8.249977 z m -30.133483,-46.2944141 12.442245,-26.7517869 -0.287482,-8.673945 c -0.355513,-10.726516 -1.99051,-11.472646 -5.273263,-2.406529 -3.43423,9.484455 -6.731183,13.440697 -21.001032,25.2006281 -13.077578,10.7773531 -27.401292,25.0535679 -27.401292,27.3104299 0,0.658101 2.2952,3.771667 5.1004,6.919037 l 5.10038,5.722491 9.438914,-0.284257 9.438912,-0.284286 z M -3.0331651,27.390579 c 1.234904,-1.403439 2.24529274,-3.1672 2.24529274,-3.919468 0,-1.372465 -9.82376064,-11.661181 -24.13225064,-25.274378 -4.216738,-4.0118251 -8.586736,-8.951469 -9.711149,-10.97697 -6.036592,-10.874431 -9.073359,-17.376798 -10.602591,-22.702618 -0.936164,-3.260321 -1.833205,-6.076505 -1.993453,-6.258193 -0.160105,-0.181603 -1.276853,0.197161 -2.481405,0.841797 -2.009067,1.075223 -2.147759,1.725601 -1.677484,7.867081 0.418423,5.464428 2.34987,11.270705 10.508394,31.5902146 5.497608,13.6924014 10.73701,26.6423724 11.643076,28.7777144 l 1.647359,3.882439 11.154444,-0.63796 C -6.1146548,29.990112 -5.1101498,29.751 -3.0331651,27.390579 Z M -53.04239,-31.570912 c -0.349035,-2.546409 -0.698325,-5.577576 -0.776228,-6.735878 -0.07779,-1.158303 -0.415623,-0.309773 -0.750543,1.885621 -0.755974,4.955061 -0.211304,9.480128 1.141076,9.480128 0.639686,0 0.783554,-1.727072 0.385695,-4.629871 z m 4.098356,-12.048291 c 0.506028,-1.537717 -3.95576,-2.693502 -7.227735,-1.872298 -1.372125,0.344368 -2.494758,1.315778 -2.494758,2.158678 0,1.202798 1.003034,1.467085 4.662063,1.22837 2.564117,-0.167177 4.841318,-0.848927 5.06043,-1.51475 z"
         fill="#242424"
         stroke-width="1"
         id="path934" />
    </g>
  </g>
  <g
     inkscape:groupmode="layer"
     id="layer5"
     inkscape:label="Left Peri"
     style="display:inline">
    <path
       id="path897"
       d="m 163.4913,45.133163 c -5.45816,0.128376 -6.69977,1.654231 -9.08575,9.728089 -3.13781,10.617896 -6.94501,15.40424 -22.63066,28.451491 -14.95929,12.443071 -19.8555,17.559047 -29.38219,30.701487 -11.836824,16.32943 -19.030764,32.08092 -21.625544,47.35163 l -0.84749,4.98936 -5.23896,0.30179 c -7.71446,0.44416 -6.48689,3.06889 2.16731,4.63382 5.21067,0.94222 9.55807,5.09374 9.55807,9.12709 0,4.49449 -3.03612,6.71994 -10.81071,7.92407 l -6.65282,1.03042 2.90732,1.9353 c 1.59909,1.06462 4.93134,2.17269 7.40471,2.46238 4.30132,0.50379 4.56177,0.72212 5.98,5.01727 2.28838,6.9303 8.6637,16.32939 19.968804,29.43851 11.49474,13.32902 14.1224,17.76585 17.25011,29.12949 1.90313,6.91445 2.0796,9.42222 1.5658,22.24568 -0.49647,12.39054 -0.35161,14.70437 1.01647,16.21604 0.87766,0.96983 2.12163,1.76321 2.76417,1.76321 2.15062,0 5.16134,-4.43243 7.4564,-10.97711 5.87266,-16.74683 12.36768,-27.00266 19.40553,-30.64205 1.67358,-0.86542 5.31656,-1.60621 8.09563,-1.64641 0.25406,-0.004 0.49754,-0.005 0.7338,-0.004 v -2.14199 l -3.78013,0.524 c -10.17288,1.41068 -16.7457,9.60972 -25.10286,31.31439 -1.92335,4.99525 -3.95616,9.64353 -4.51704,10.32959 h 5.3e-4 c -1.11383,1.36248 -3.04985,1.6341 -4.10776,0.57619 -0.36977,-0.36923 -0.3798,-6.7913 -0.0227,-14.27147 0.74517,-15.61008 -0.64921,-24.26412 -5.59448,-34.7209 -1.60448,-3.39263 -2.6049,-6.3516 -2.22313,-6.57479 1.63327,-0.95528 18.11557,-5.63169 19.84892,-5.63169 1.04578,0 2.3275,-0.3912 2.84892,-0.8692 1.83261,-1.68003 6.17857,-2.14101 7.3117,-0.77567 0.60604,0.73124 0.88344,1.5495 0.61443,1.8185 -0.26889,0.26887 2.21649,2.0235 5.52266,3.8995 8.88613,5.04222 8.87214,5.02717 9.17464,9.8764 l 0.0264,0.4222 v -7.60418 c -1.03801,-0.37259 -2.09522,-0.90305 -3.19877,-1.59163 -3.55553,-2.21854 -5.56209,-4.37214 -7.41971,-7.96438 -2.97214,-5.74686 -3.00422,-6.15641 10.61848,-6.18618 v -2.18436 c -0.90662,0.12159 -1.99214,0.1819 -3.26544,0.1819 -3.18949,0 -6.58002,0.29967 -7.53494,0.66611 -1.5331,0.58831 -1.65431,0.20889 -1.03508,-3.24322 3.40391,-18.97595 2.98915,-28.23779 -1.40404,-31.36606 l -2.75074,-1.95905 2.03192,-6.96443 c 1.11739,-3.83053 2.33361,-6.77798 2.70267,-6.54999 0.36904,0.22808 1.94523,3.69402 3.50263,7.70186 1.55744,4.0078 3.89153,9.55381 5.18728,12.32432 2.02986,4.34018 2.19873,5.48907 1.21801,8.30234 -1.49412,4.28608 -0.85115,9.93097 1.34773,13.48496 v -20.07112 c -0.0501,-0.11843 -0.0932,-0.21681 -0.14883,-0.34985 -0.55528,-1.32679 -2.99719,-7.12727 -5.42654,-12.89018 l -4.41679,-10.47792 2.01332,-3.49281 c 2.58657,-4.48631 4.50446,-6.27339 7.97884,-6.80165 v -2.17934 h -2.84221 l -10.8722,-18.18597 c -5.9799,-10.00248 -10.81686,-18.87157 -10.74869,-19.70888 0.0682,-0.83727 2.58219,-6.6864 5.58673,-12.99817 3.00458,-6.31177 8.39183,-17.762612 11.97137,-25.446503 3.298,-7.079508 5.50168,-11.237814 6.905,-12.986805 v -5.636347 c -0.56283,-1.656448 -0.66498,-4.883076 -0.14056,-8.320423 0.0472,-0.309153 0.094,-0.584298 0.14056,-0.838192 v -4.82296 c -3.29113,0.18701 -4.23798,-0.09876 -4.23798,-1.250569 0,-0.842902 1.12281,-1.814158 2.49494,-2.158527 0.55664,-0.139705 1.14785,-0.21854 1.74304,-0.251663 z m -4.24522,6.465756 c 1.01998,-0.07615 1.5972,2.805242 1.79163,8.671305 l 0.28732,8.673889 -12.44214,26.751855 -12.44213,26.751332 -9.43922,0.28474 -9.4387,0.28422 -5.10046,-5.72265 c -2.8052,-3.14737 -5.10047,-6.26085 -5.10047,-6.91896 0,-2.25686 14.32385,-16.533117 27.40143,-27.310469 14.26985,-11.759932 17.56656,-15.716072 21.00079,-25.200527 1.48749,-4.108085 2.63684,-6.20164 3.48195,-6.264735 z m -53.58846,60.122941 3.37706,3.86591 c 7.57045,8.66611 7.90806,6.00639 -3.63027,28.63701 -5.646257,11.07423 -10.714254,20.69611 -11.261844,21.38216 -1.52451,1.90998 -10.64787,1.62608 -11.40808,-0.35502 -1.14134,-2.97425 2.80467,-17.7936 7.25226,-27.23709 2.42986,-5.15927 6.94979,-13.18578 10.044344,-17.83664 z m 12.04061,13.22038 h 20.33003 l 10.23762,17.09198 10.23761,17.09198 -1.60507,3.36517 -1.60455,3.36517 -20.22357,0.0992 c -11.1231,0.0545 -24.08096,0.27631 -28.79514,0.49299 -4.71417,0.21671 -8.845364,0.11998 -9.180314,-0.21497 -0.6512,-0.6512 8.482494,-19.49201 16.025884,-33.05845 z m 6.57635,42.95913 c 20.10872,-0.0237 28.91849,0.25937 28.52435,0.89711 -0.8029,1.299 -74.992264,1.47665 -75.792784,0.18138 -0.29999,-0.48541 16.43316,-0.94851 37.952714,-1.05006 3.33997,-0.0158 6.44304,-0.025 9.31572,-0.0284 z m -34.910534,3.9424 c 3.87699,0 5.17938,0.42021 5.98775,1.93063 1.30788,2.44294 1.30249,5.54247 -0.0171,10.29395 h -5.3e-4 c -0.97695,3.51782 -1.27585,3.74189 -4.98419,3.74189 -3.95714,0 -4.80094,-0.73982 -2.95228,-2.58848 2.26568,-2.26568 0.53636,-11.38225 -2.15904,-11.38225 -0.4561,0 -0.82889,-0.44904 -0.82889,-0.99787 0,-0.54885 2.22929,-0.99787 4.95422,-0.99787 z m 8.31577,0 h 51.632514 l -0.60514,2.74454 c -0.33279,1.50934 -1.25206,5.10153 -2.04276,7.98297 l -1.43765,5.23896 H 96.226676 l 0.82734,-3.2427 c 0.45516,-1.78376 0.78249,-5.37643 0.72709,-7.98349 z m 40.204264,17.34261 c 8.01798,-0.0212 11.39001,0.85215 11.39001,2.85565 0,0.96444 -1.43931,0.98176 -2.39211,0.0289 -0.40089,-0.40083 -16.52927,-0.60688 -35.84122,-0.45837 -22.784464,0.17524 -35.638344,-0.0893 -36.609654,-0.75293 -1.04282,-0.71256 6.07011,-1.06191 23.45077,-1.15187 13.721214,-0.0711 30.046424,-0.27762 36.277884,-0.45837 1.33876,-0.0389 2.5789,-0.06 3.72432,-0.063 z m 5.53041,3.30886 2.93006,3.20755 c 3.38277,3.70366 3.50804,5.22033 1.45779,17.62786 -0.80952,4.89916 -1.59509,10.46566 -1.74615,12.36979 -0.26858,3.38823 -0.42358,3.50237 -7.26002,5.35523 -3.84193,1.04128 -8.3327,2.47161 -9.97923,3.17862 -1.64657,0.70701 -4.78971,1.77487 -6.98511,2.37298 -5.49117,1.49596 -6.04609,1.41403 -7.75922,-1.1467 -0.82617,-1.2349 -3.55732,-4.37068 -6.06939,-6.96857 -5.3772,-5.56092 -7.11531,-10.65447 -8.434104,-24.71477 -0.48907,-5.21406 -0.76577,-9.6338 -0.61444,-9.82162 0.15128,-0.18776 10.216904,-0.59351 22.367624,-0.90124 z M 91.722566,193.798 h 5.31647 l 1.55753,12.72325 c 0.85664,6.99782 1.448844,12.84479 1.316187,12.99301 -0.467027,0.52159 -9.577797,-13.66271 -11.508847,-17.91777 -3.17951,-7.006 -2.84189,-7.79849 3.31866,-7.79849 z m 58.528204,0.99787 c 0.44168,0 1.09819,1.17537 1.45882,2.61224 0.9201,3.66599 0.1905,3.88442 -1.14618,0.34313 -0.61361,-1.6256 -0.75432,-2.95537 -0.31264,-2.95537 z m 0.92604,8.98136 c 0.4974,0 0.66946,0.89806 0.38241,1.99575 -0.28706,1.09771 -0.69389,1.99574 -0.90434,1.99574 -0.21029,0 -0.38292,-0.89803 -0.38292,-1.99574 0,-1.09769 0.40736,-1.99575 0.90485,-1.99575 z"
       style="display:inline;fill:#bf616a;fill-opacity:1;stroke-width:0.264583" />
    <path
       id="path1664"
       style="fill:none;fill-opacity:1;stroke:#bf616a;stroke-width:2.64583;stroke-miterlimit:4;stroke-dasharray:none;stroke-opacity:1"
       d="m 164.79769,47.735071 v 55.895809 a 58.380584,60.173935 0 0 1 11.621,11.31042 58.380584,60.173935 10.943739 0 1 12.84779,-16.656861 58.380584,60.173935 0 0 0 0.0196,-1.553911 58.380584,60.173935 0 0 0 -24.48842,-48.995457 z" />
    <path
       id="path1676"
       style="fill:none;fill-opacity:1;stroke:#bf616a;stroke-width:2.64583;stroke-miterlimit:4;stroke-dasharray:none;stroke-opacity:1"
       d="m 232.37386,140.15745 c -19.04638,0.92941 -36.73038,11.10864 -47.47152,27.32546 -0.66457,1.00333 -1.29978,2.02578 -1.90479,3.06597 4.13414,8.42162 6.28832,17.72751 6.2885,27.16578 -1.9e-4,0.13987 -8.6e-4,0.27974 -0.002,0.41961 0.11012,-0.0872 0.22053,-0.17401 0.33124,-0.26045 11.81863,-9.23759 26.55854,-13.85939 41.3303,-12.95941 6.19784,-14.32737 6.71034,-30.37809 1.42827,-44.75696 z"
       sodipodi:nodetypes="csccccccc" />
    <path
       id="path1682"
       style="fill:none;fill-opacity:1;stroke:#bf616a;stroke-width:2.64583;stroke-miterlimit:4;stroke-dasharray:none;stroke-opacity:1"
       d="m 203.78646,88.527013 a 58.380584,60.173935 10.943739 0 0 -27.36784,26.413887 58.380584,60.173935 0 0 1 12.86743,37.68556 58.380584,60.173935 0 0 1 -0.8108,9.99422 58.380584,60.173935 33.517353 0 1 29.78526,-20.0303 58.380584,60.173935 10.943739 0 0 0.26768,-1.31 58.380584,60.173935 10.943739 0 0 -14.74173,-52.753367 z" />
    <path
       id="path1662"
       style="fill:none;fill-opacity:1;stroke:#bf616a;stroke-width:2.64583;stroke-miterlimit:4;stroke-dasharray:none;stroke-opacity:1"
       d="m 164.79769,103.63088 v 45.08872 a 58.380584,60.173935 0 0 1 18.20044,21.82864 58.380584,60.173935 33.517353 0 1 1.90428,-3.06544 58.380584,60.173935 33.517353 0 1 3.57291,-4.86172 58.380584,60.173935 0 0 0 0.8108,-9.99474 58.380584,60.173935 0 0 0 -24.48843,-48.99546 z" />
    <path
       id="path1653"
       style="fill:none;fill-opacity:1;stroke:#bf616a;stroke-width:2.64583;stroke-miterlimit:4;stroke-dasharray:none;stroke-opacity:1"
       d="m 164.79769,148.7196 v 97.98989 a 58.380584,60.173935 0 0 0 5.3e-4,5.2e-4 58.380584,60.173935 0 0 0 1.27124,-0.9617 58.380584,60.173935 51.987563 0 1 23.21563,-47.61363 58.380584,60.173935 0 0 0 0.002,-0.42012 58.380584,60.173935 0 0 0 -24.48843,-48.99495 z" />
    <path
       id="path1672"
       style="fill:none;fill-opacity:1;stroke:#bf616a;stroke-width:2.64583;stroke-miterlimit:4;stroke-dasharray:none;stroke-opacity:1"
       d="m 166.09437,247.34097 a 58.380583,60.173936 51.987563 0 1 23.52133,-49.46704 58.380583,60.173936 51.987563 0 1 53.68327,-10.87878 58.380583,60.173936 51.987563 0 1 -23.52133,49.46704 58.380583,60.173936 51.987563 0 1 -53.68327,10.87878 z" />
    <path
       id="path1858"
       style="fill:none;stroke:#bf616a;stroke-width:2.64583;stroke-miterlimit:4;stroke-dasharray:none;stroke-opacity:1"
       d="m 166.26892,240.75895 -1.47123,0.4041 v 30.47619 c 1.96148,10.17278 5.6441,27.96675 5.6441,27.96675 l 6.04201,-0.31107 c 0,0 -2.22428,-10.92012 -3.64267,-25.35352 -0.93911,1.20494 -1.47433,2.04846 -1.47433,2.04846 l -2.19883,-9.37771 c 0,0 1.39066,-1.25483 2.88096,-2.71663 -0.004,-0.0634 -0.008,-0.12614 -0.0114,-0.18966 -0.55519,-9.69267 2.92628,-13.18809 6.50658,-14.27819 a 58.380584,60.173935 51.987563 0 1 -12.44989,-2.0867 58.380584,60.173935 51.987563 0 1 0.17467,-6.58202 z m 19.22415,8.67595 a 58.380584,60.173935 51.987563 0 1 -0.34572,0.0186 c 0.30427,0.0813 0.50281,0.14521 0.50281,0.14521 l -5.3e-4,-0.001 z" />
    <path
       d="m 171.36653,275.99015 c 0,0 4.42534,-7.0274 10.54165,-9.7411 6.10353,-2.72097 12.43395,-3.88224 12.43395,-3.88224 0,0 -17.85119,-3.38131 -19.65786,-1.24622 -1.79706,2.1401 -5.51647,5.49187 -5.51647,5.49187"
       fill="#3f7f00"
       stroke="#ffffff"
       stroke-linecap="round"
       stroke-linejoin="round"
       stroke-width="0.170656"
       id="path1900"
       style="fill:none;stroke:#bf616a;stroke-width:2.64583;stroke-miterlimit:4;stroke-dasharray:none;stroke-opacity:1" />
  </g>
  <g
     inkscape:groupmode="layer"
     id="layer4"
     inkscape:label="Right Peri"
     style="display:none">
    <path
       id="path1053"
       style="fill:none;fill-opacity:1;stroke:#000000;stroke-width:9.99999;stroke-miterlimit:4;stroke-dasharray:none;stroke-opacity:1"
       d="m 622.85742,153.79297 a 220.65103,227.42905 0 0 0 -92.55664,185.17969 220.65103,227.42905 0 0 0 0.0664,5.49218 227.42905,220.65103 79.056261 0 1 48.8125,63.02149 220.65103,227.42905 0 0 1 43.67773,-42.4336 z"
       transform="scale(0.26458333)" />
    <path
       id="path1055"
       style="fill:none;fill-opacity:1;stroke:#000000;stroke-width:2.64583;stroke-miterlimit:4;stroke-dasharray:none;stroke-opacity:1"
       d="m 97.096404,133.13812 a 60.173935,58.380584 56.482647 0 0 1.41955,44.73888 60.173935,58.380584 38.012437 0 1 41.469816,12.95114 60.173935,58.380584 38.012437 0 1 0.32453,0.2558 58.380584,60.173935 0 0 1 -0.002,-0.41341 58.380584,60.173935 0 0 1 6.22443,-27.03504 60.173935,58.380584 56.482647 0 0 -1.96525,-3.17138 60.173935,58.380584 56.482647 0 0 -47.471523,-27.32599 z" />
    <path
       id="path1059"
       style="fill:none;fill-opacity:1;stroke:#000000;stroke-width:2.64583;stroke-miterlimit:4;stroke-dasharray:none;stroke-opacity:1"
       d="m 125.91687,81.482881 a 60.173935,58.380584 79.056261 0 0 -14.74174,52.753369 60.173935,58.380584 79.056261 0 0 0.28991,1.41283 60.173935,58.380584 56.482647 0 1 29.69224,20.1533 58.380584,60.173935 0 0 1 -0.84853,-10.22005 58.380584,60.173935 0 0 1 12.93255,-37.76876 60.173935,58.380584 79.056261 0 0 -27.32443,-26.330689 z" />
    <path
       id="path1063"
       style="fill:none;fill-opacity:1;stroke:#000000;stroke-width:9.99999;stroke-miterlimit:4;stroke-dasharray:none;stroke-opacity:1"
       d="m 622.85742,365.05273 a 220.65103,227.42905 0 0 0 -92.55664,185.17969 220.65103,227.42905 0 0 0 3.20703,38.625 227.42905,220.65103 56.482647 0 1 12.89063,17.6211 227.42905,220.65103 56.482647 0 1 7.42773,11.98437 220.65103,227.42905 0 0 1 69.03125,-82.99609 z"
       transform="scale(0.26458333)" />
    <path
       id="path1065"
       style="fill:none;fill-opacity:1;stroke:#000000;stroke-width:9.99999;stroke-miterlimit:4;stroke-dasharray:none;stroke-opacity:1"
       d="m 622.85742,535.4668 a 220.65103,227.42905 0 0 0 -92.55664,185.17773 220.65103,227.42905 0 0 0 0.008,1.56055 227.42905,220.65103 38.012437 0 1 87.76953,180.0039 220.65103,227.42905 0 0 0 4.7793,3.61329 z"
       transform="scale(0.26458333)" />
    <path
       id="path1067"
       style="fill:none;fill-opacity:1;stroke:#000000;stroke-width:2.64583;stroke-miterlimit:4;stroke-dasharray:none;stroke-opacity:1"
       d="m 163.50722,240.29502 a 60.173936,58.380583 38.012437 0 0 -23.52133,-49.46704 60.173936,58.380583 38.012437 0 0 -53.68326,-10.87878 60.173936,58.380583 38.012437 0 0 23.52133,49.46704 60.173936,58.380583 38.012437 0 0 53.68326,10.87878 z" />
    <path
       id="path1071"
       style="fill:none;stroke:#000000;stroke-width:9.99999;stroke-miterlimit:4;stroke-dasharray:none"
       d="m 622.85742,884.85938 -5.31054,1.45703 a 227.42905,220.65103 38.012437 0 1 0.43359,21.88476 227.42905,220.65103 38.012437 0 1 -13.74609,3.38672 c 5.84462,23.65005 14.62178,59.89886 14.07031,62.2207 -0.19644,0.95277 1.74755,11.68784 4.55273,26.23631 z"
       transform="scale(0.26458333)" />
    <path
       id="path1079"
       d="m 165.85603,38.045221 v 1.145667 c 2.38921,0.160547 4.45117,1.044319 4.09846,2.116149 -0.19119,0.580964 -1.95006,1.173472 -4.09846,1.42627 v 10.62209 c 0.29858,2.178423 0.29221,3.694401 0,4.315499 v 3.830257 c 1.32885,0.45475 4.68185,7.82039 12.89275,28.250988 l 11.36313,28.274229 -10.11721,16.88114 -10.11721,16.88114 h -4.02146 v 2.04122 c 0.4621,-0.028 0.94193,-0.0455 1.45934,-0.0455 4.63151,0 4.99439,0.20229 7.51427,4.19405 1.67629,2.65535 2.22962,4.33373 1.50895,4.57389 -0.62611,0.2087 -1.13791,1.16697 -1.13791,2.12958 0,0.96261 -1.32683,6.16865 -2.94814,11.5688 -1.62131,5.4002 -3.84176,10.71265 -4.93458,11.80549 -0.68135,0.68133 -1.12668,1.12218 -1.46193,1.31826 v 20.4401 c 2.68505,2.88891 2.72962,4.62798 0,5.38727 v 2.45256 c 0.64786,-5.3e-4 1.15469,-0.004 1.85984,-0.004 h 15.46779 v 3.35794 c 0,3.86865 -2.61919,7.63005 -7.25124,10.41331 -3.83428,2.3039 -6.92497,3.08948 -10.07639,2.38177 v 13.46895 c 2.77786,0.18221 4.44333,0.97172 7.62796,3.25871 6.00279,4.3109 6.72077,5.48806 10.681,17.51365 5.08221,15.43274 9.15972,22.45291 13.04106,22.45291 3.56524,0 4.25145,-2.73045 5.0922,-20.25872 0.82593,-17.21964 2.18928,-27.06108 4.07055,-29.38683 0.55493,-0.68604 0.72191,-1.24747 0.37104,-1.24747 -1.64431,0 8.82965,-17.63718 14.26321,-24.01817 1.13638,-1.33449 3.98148,-4.9422 6.32261,-8.01709 5.83377,-7.66219 11.53333,-13.86892 12.73618,-13.86892 0.55019,0 0.88926,-0.33664 0.75292,-0.74827 -0.13629,-0.41164 0.71032,-2.37108 1.88154,-4.35426 2.04842,-3.46846 2.33833,-3.6027 7.61917,-3.5264 5.54182,0.0801 8.70903,-1.3499 8.70903,-3.93206 0,-1.01508 -2.4701,-1.40864 -10.19266,-1.62419 -9.8901,-0.27594 -10.23716,-0.36369 -11.69231,-2.96054 -3.27274,-5.84047 3.1567,-12.79147 11.83184,-12.79147 4.43898,0 9.05526,-2.06341 9.05526,-4.04781 0,-0.51774 -3.12606,-0.94155 -6.94686,-0.94155 h -6.94686 l -0.94155,-3.74189 c -0.51802,-2.0582 -1.45974,-6.02187 -2.09238,-8.80773 -1.85156,-8.15346 -3.22283,-11.34055 -9.28884,-21.58938 -7.72675,-13.05473 -20.04712,-28.305419 -28.344,-35.085708 -8.09261,-6.6134 -9.51518,-8.113551 -15.73858,-16.595367 -4.78438,-6.520641 -10.24092,-16.392996 -10.88047,-19.685622 -0.18901,-0.973132 -0.83199,-2.956229 -1.42885,-4.406963 -0.59689,-1.450735 -1.38114,-4.216321 -1.74305,-6.145364 -0.6895,-3.67538 -2.22674,-4.612015 -7.81916,-4.670515 z m 5.7118,5.097362 c 0.0482,0.0058 0.0833,0.01969 0.10335,0.04238 0.16025,0.181687 1.05699,2.998211 1.99316,6.258534 1.52923,5.325819 4.56638,11.828057 10.60297,22.702487 1.12441,2.025502 5.4943,6.965284 9.71103,10.97711 14.3085,13.613196 24.13238,23.901936 24.13238,25.274406 0,0.75226 -1.01043,2.5157 -2.24534,3.91914 -2.07698,2.36043 -3.08193,2.59987 -13.40021,3.18999 l -11.15436,0.63769 -1.64745,-3.88245 c -0.90606,-2.13534 -6.14509,-15.085157 -11.6427,-28.777559 -8.15853,-20.31951 -10.08997,-26.125891 -10.5084,-31.590318 -0.47027,-6.141482 -0.33165,-6.791997 1.67742,-7.867221 1.05398,-0.564057 2.04067,-0.924534 2.37815,-0.884185 z m 48.34743,66.793847 2.44946,3.21324 c 3.94335,5.17273 10.66801,16.52264 13.25501,22.37227 2.17992,4.92924 5.44256,17.94572 5.44256,21.71289 0,1.19451 -1.19263,1.53892 -5.32835,1.53892 -4.55969,0 -5.47476,-0.32394 -6.34329,-2.24533 -0.55822,-1.23491 -4.47309,-10.57516 -8.69972,-20.75584 l -7.68481,-18.50998 3.45457,-3.66283 z m -8.29096,6.98613 4.27622,11.19622 c 2.35196,6.15775 4.71541,11.9851 5.25239,12.95011 1.08495,1.94978 6.93653,16.4866 6.93653,17.23203 v 0.002 c 0,0.26019 -11.42052,0.47292 -25.37881,0.47284 h -25.3783 l -2.16731,-3.04374 c -1.19194,-1.67392 -1.95191,-3.86751 -1.68826,-4.87516 0.26349,-1.00765 4.68835,-9.04994 9.83299,-17.87177 l 9.35395,-16.03985 9.48004,-0.0114 z m -3.18689,43.926 c 2.37895,-0.005 4.84373,-0.005 7.36906,0 20.2026,0.0433 36.2826,0.2419 35.73373,0.44132 -2.08103,0.75643 -71.51989,1.01067 -71.98165,0.26355 -0.23315,-0.37716 12.22624,-0.66723 28.87886,-0.70487 z m -4.02301,2.91456 h 22.89369 l -0.83147,2.74453 c -0.45743,1.50935 -0.86746,5.2139 -0.91106,8.23257 l -0.0791,5.48856 -20.07681,0.26975 -20.07681,0.27026 -1.60456,-5.75882 c -0.88248,-3.1671 -2.00962,-6.72377 -2.50475,-7.90391 -0.49523,-1.18017 -0.63097,-2.41484 -0.30179,-2.74401 0.32918,-0.32924 10.90108,-0.59893 23.49262,-0.59893 z m 30.90819,0 c 4.83139,0 5.04386,0.0998 3.10575,1.45727 -1.14418,0.8014 -2.64463,2.81939 -3.33416,4.48396 -1.2003,2.89786 -1.11278,4.42629 0.47336,8.27909 0.61313,1.4895 0.14021,1.74666 -3.21324,1.74666 -2.16263,0 -4.23125,-0.29969 -4.59714,-0.66559 -1.23969,-1.23968 -0.67427,-9.39608 0.8568,-12.35687 1.38966,-2.68733 1.97514,-2.94452 6.70863,-2.94452 z m -57.53189,1.11827 c 0.57853,-0.0852 1.75469,2.95837 3.7574,9.70225 l 1.53479,5.16816 -3.78685,3.98064 c -3.94088,4.14274 -4.72716,4.49922 -6.89571,3.12384 -1.03729,-0.65791 -0.678,-2.9313 1.76165,-11.14351 1.68572,-5.67432 3.2701,-10.52236 3.52072,-10.77298 0.0333,-0.0333 0.0694,-0.0527 0.108,-0.0584 z m 55.23746,16.88734 c 13.55165,-0.011 24.01792,0.29277 23.00273,0.8723 -0.82327,0.47001 -17.37952,1.07738 -36.79156,1.34979 -28.3578,0.39783 -35.46295,0.76322 -36.15231,1.85932 -1.08029,1.71765 -0.95452,9.57558 0.27544,17.18448 1.10852,6.85754 0.42274,8.58053 -1.12603,2.82877 -1.40324,-5.21152 -1.52468,-18.39018 -0.19224,-20.87986 0.94323,-1.7625 2.58807,-2.00377 17.71468,-2.60036 10.3227,-0.40707 22.72912,-0.6059 33.26929,-0.61444 z m 2.47375,3.94602 c 0.33888,5.3e-4 0.70112,0.003 1.08882,0.003 3.00819,0 5.46943,0.443 5.46943,0.98444 0,0.54147 -2.53744,4.02177 -5.63893,7.73389 -3.10149,3.71212 -6.05099,7.19848 -6.55464,7.74733 -0.55861,0.60882 -0.67207,-1.53115 -0.29042,-5.48855 1.03375,-10.71828 0.84244,-10.9879 5.92574,-10.97969 z m -16.42639,0.13022 c 9.15155,5.3e-4 10.00906,0.36641 10.00456,1.59939 -0.004,0.97099 -0.4318,5.45502 -0.95033,9.96425 -0.92018,8.00264 -1.0892,8.38417 -7.0683,15.96646 -3.36903,4.27238 -6.85546,9.0027 -7.74734,10.51202 h 5.3e-4 c -1.89317,3.20396 -3.49936,3.28908 -17.77256,0.94051 l -9.0966,-1.49706 -0.76016,-11.07271 c -0.41809,-6.09011 -0.81482,-14.44115 -0.88211,-18.55753 l -0.12248,-7.48429 22.2033,-0.2682 c 5.16898,-0.0625 9.14098,-0.10301 12.1915,-0.10284 z m -41.88426,2.87683 c 1.13999,0.0536 1.97351,3.44035 1.9854,8.56226 0.008,3.34305 0.68387,8.28285 1.5012,10.97711 0.81735,2.69428 1.49107,5.45983 1.49707,6.14588 0.007,0.86052 -1.84592,1.24747 -5.97638,1.24747 -6.27002,0 -7.71196,-1.31835 -4.42505,-4.04626 3.35904,-2.78774 4.59892,-6.97422 4.28604,-14.47095 -0.16794,-4.02432 0.0439,-7.66567 0.47026,-8.09202 0.22884,-0.22883 0.45035,-0.33342 0.66146,-0.32349 z m 8.48733,36.14663 8.98085,1.37821 c 4.93964,0.758 10.41494,1.61948 12.16722,1.91409 l 3.18636,0.53537 -2.88147,6.42235 c -4.41288,9.83551 -4.9382,12.61084 -6.00791,31.76137 -0.54669,9.78755 -1.4543,18.65664 -2.01744,19.70887 -0.56311,1.05222 -1.37894,1.91307 -1.81281,1.91307 -3.03323,0 -8.98557,-11.73555 -12.74134,-25.12095 -1.40494,-5.00721 -2.76183,-7.30268 -6.56498,-11.10579 -2.63673,-2.63673 -6.36336,-5.44949 -8.28115,-6.25078 -3.21271,-1.34233 -3.4866,-1.79253 -3.4866,-5.72213 0,-4.04852 0.156,-4.27685 3.07681,-4.49946 4.41096,-0.3361 10.24884,-3.58149 13.54181,-7.52874 z"
       style="display:inline;stroke-width:0.264583" />
  </g>
  <g
     inkscape:groupmode="layer"
     id="layer6"
     inkscape:label="Right Peri 1"
     style="display:none" />
  <inkscape:templateinfo>
    <inkscape:name>Dark Template</inkscape:name>
    <inkscape:date>2020-09-02</inkscape:date>
  </inkscape:templateinfo>
  <inkscape:templateinfo>
    <inkscape:name>Dark Template</inkscape:name>
    <inkscape:date>2020-09-02</inkscape:date>
  </inkscape:templateinfo>
</svg>
