<?xml version="1.0" encoding="UTF-8" standalone="no"?>
<!DOCTYPE svg PUBLIC "-//W3C//DTD SVG 1.1//EN" "http://www.w3.org/Graphics/SVG/1.1/DTD/svg11.dtd">
<svg width="100%" height="100%" viewBox="0 0 2897 2897" version="1.1" xmlns="http://www.w3.org/2000/svg" xmlns:xlink="http://www.w3.org/1999/xlink" xml:space="preserve" xmlns:serif="http://www.serif.com/" style="fill-rule:evenodd;clip-rule:evenodd;stroke-linecap:round;stroke-linejoin:round;stroke-miterlimit:1.5;">
    <g transform="matrix(1,0,0,1,-686.819,-201.525)">
        <g transform="matrix(1.57857,0,0,1.57857,-1493.87,-844.354)">
            <circle cx="2299.02" cy="1580.13" r="917.587" style="fill:rgb(243,222,225);"/>
        </g>
        <g transform="matrix(1.46748,0,0,1.46748,-1238.48,-668.824)">
            <circle cx="2299.02" cy="1580.13" r="917.587" style="fill:rgb(191,97,106);"/>
        </g>
        <g transform="matrix(1.43046,0,0,1.43046,-1153.35,-610.314)">
            <circle cx="2299.02" cy="1580.13" r="917.587" style="fill:none;stroke:rgb(243,222,225);stroke-width:8.74px;"/>
        </g>
        <g transform="matrix(0.905115,0,0,0.905115,54.4175,219.797)">
            <circle cx="2299.02" cy="1580.13" r="917.587" style="fill:none;stroke:rgb(243,222,225);stroke-width:13.81px;"/>
        </g>
        <g transform="matrix(0.868086,0,0,0.868086,139.547,278.307)">
            <circle cx="2299.02" cy="1580.13" r="917.587" style="fill:rgb(243,222,225);"/>
        </g>
        <g transform="matrix(1,0,0,1,502.736,425.381)">
            <g id="Logo">
                <g>
                    <g id="path897" transform="matrix(2.07941,0,0,2.07941,712.747,212.776)">
                        <path d="M463.44,127.937C447.968,128.3 444.448,132.626 437.685,155.512C428.79,185.61 417.998,199.178 373.535,236.162C331.131,271.434 317.252,285.936 290.247,323.19C256.694,369.478 236.302,414.128 228.946,457.415L226.544,471.558L211.693,472.414C189.826,473.673 193.305,481.113 217.837,485.549C232.607,488.22 244.931,499.988 244.931,511.421C244.931,524.161 236.324,530.47 214.286,533.883L195.428,536.804L203.669,542.29C208.202,545.307 217.648,548.448 224.659,549.27C236.851,550.698 237.59,551.317 241.61,563.492C248.097,583.137 266.168,609.78 298.214,646.939C330.798,684.723 338.246,697.299 347.112,729.511C352.507,749.111 353.007,756.22 351.551,792.57C350.143,827.693 350.554,834.252 354.432,838.537C356.92,841.286 360.446,843.535 362.268,843.535C368.364,843.535 376.898,830.97 383.404,812.418C400.051,764.947 418.462,735.875 438.412,725.559C443.156,723.106 453.482,721.006 461.36,720.892C462.08,720.881 462.77,720.878 463.44,720.881L463.44,714.809L452.725,716.294C423.888,720.293 405.256,743.535 381.567,805.06C376.115,819.219 370.353,832.396 368.763,834.34L368.764,834.34C365.607,838.202 360.119,838.972 357.12,835.974C356.072,834.927 356.044,816.723 357.056,795.519C359.168,751.27 355.215,726.739 341.197,697.098C336.649,687.481 333.813,679.093 334.896,678.46C339.525,675.752 386.247,662.497 391.16,662.497C394.125,662.497 397.758,661.388 399.236,660.033C404.431,655.27 416.75,653.964 419.962,657.834C421.68,659.907 422.466,662.226 421.704,662.989C420.942,663.751 427.987,668.725 437.359,674.042C462.548,688.335 462.508,688.293 463.365,702.038L463.44,703.235L463.44,681.68C460.498,680.624 457.501,679.12 454.373,677.168C444.294,670.88 438.606,664.775 433.341,654.592C424.916,638.302 424.825,637.141 463.44,637.057L463.44,630.865C460.87,631.209 457.793,631.38 454.184,631.38C445.143,631.38 435.532,632.23 432.825,633.269C428.479,634.936 428.136,633.861 429.891,624.075C439.54,570.285 438.364,544.031 425.911,535.163L418.114,529.61L423.873,509.869C427.041,499.01 430.488,490.655 431.534,491.302C432.581,491.948 437.048,501.773 441.463,513.134C445.878,524.494 452.494,540.215 456.167,548.069C461.921,560.372 462.4,563.628 459.62,571.603C455.385,583.753 457.207,599.754 463.44,609.828L463.44,552.934C463.298,552.598 463.176,552.319 463.018,551.942C461.444,548.181 454.522,531.739 447.636,515.403L435.116,485.702L440.823,475.801C448.155,463.084 453.592,458.018 463.44,456.52L463.44,450.343L455.384,450.343L424.565,398.792C407.614,370.438 393.903,345.298 394.096,342.924C394.289,340.551 401.416,323.971 409.932,306.079C418.449,288.187 433.72,255.728 443.867,233.947C453.216,213.879 459.462,202.092 463.44,197.134L463.44,181.157C461.845,176.462 461.555,167.315 463.042,157.572C463.176,156.695 463.308,155.916 463.44,155.196L463.44,141.524C454.111,142.055 451.427,141.244 451.427,137.979C451.427,135.59 454.61,132.837 458.499,131.861C460.077,131.465 461.753,131.241 463.44,131.147L463.44,127.937ZM451.406,146.265C454.297,146.049 455.934,154.217 456.485,170.845L457.299,195.432L422.03,271.264L386.761,347.095L360.004,347.902L333.249,348.708L318.791,332.486C310.839,323.564 304.333,314.739 304.333,312.873C304.333,306.476 344.936,266.007 382.006,235.458C422.456,202.122 431.801,190.908 441.536,164.023C445.753,152.378 449.011,146.444 451.406,146.265ZM299.502,316.692L309.075,327.65C330.534,352.216 331.491,344.676 298.784,408.826C282.779,440.218 268.413,467.492 266.861,469.437C262.539,474.851 236.678,474.046 234.523,468.431C231.288,460 242.473,417.992 255.081,391.223C261.968,376.598 274.781,353.846 283.553,340.663L299.502,316.692ZM333.633,354.167L391.261,354.167L420.281,402.617L449.301,451.066L444.751,460.605L440.203,470.145L382.876,470.426C351.346,470.58 314.615,471.209 301.252,471.823C287.889,472.437 276.179,472.163 275.229,471.214C273.384,469.368 299.274,415.961 320.657,377.505L333.633,354.167ZM352.274,475.941C409.275,475.874 434.248,476.676 433.131,478.484C430.855,482.166 220.554,482.67 218.285,478.998C217.435,477.622 264.867,476.309 325.868,476.021C335.335,475.977 344.131,475.951 352.274,475.941L352.274,475.941ZM253.315,487.116C264.305,487.116 267.997,488.307 270.289,492.589C273.996,499.514 273.981,508.3 270.24,521.769L270.239,521.769C267.469,531.74 266.622,532.375 256.11,532.375C244.893,532.375 242.501,530.278 247.742,525.038C254.164,518.616 249.262,492.773 241.621,492.773C240.329,492.773 239.272,491.501 239.272,489.945C239.272,488.389 245.591,487.116 253.315,487.116L253.315,487.116ZM276.888,487.116L423.248,487.116L421.532,494.896C420.589,499.174 417.983,509.357 415.742,517.525L411.666,532.375L272.769,532.375L275.114,523.184C276.404,518.127 277.332,507.943 277.175,500.553L276.888,487.116ZM390.853,536.276C413.581,536.216 423.139,538.692 423.139,544.371C423.139,547.105 419.059,547.154 416.358,544.453C415.222,543.317 369.504,542.733 314.761,543.154C250.175,543.65 213.739,542.901 210.986,541.019C208.03,539 228.192,538.009 277.46,537.754C316.355,537.553 362.631,536.967 380.295,536.455C384.09,536.345 387.606,536.285 390.853,536.276L390.853,536.276ZM406.529,545.656L414.835,554.748C424.424,565.247 424.779,569.546 418.967,604.717C416.673,618.604 414.446,634.383 414.018,639.781C413.256,649.385 412.817,649.709 393.438,654.961C382.547,657.913 369.818,661.967 365.15,663.971C360.483,665.975 351.573,669.002 345.35,670.698C329.785,674.938 328.212,674.706 323.355,667.447C321.014,663.947 313.272,655.058 306.151,647.694C290.908,631.931 285.981,617.492 282.243,577.636C280.857,562.856 280.072,550.328 280.501,549.795C280.93,549.263 309.463,548.113 343.906,547.241L406.529,545.656ZM260.001,549.349L275.071,549.349L279.486,585.415C281.915,605.251 283.593,621.825 283.217,622.245C281.893,623.724 256.068,583.516 250.594,571.455C241.581,551.595 242.538,549.349 260.001,549.349ZM425.908,552.177C427.16,552.177 429.021,555.509 430.043,559.582C432.651,569.974 430.583,570.593 426.794,560.555C425.055,555.947 424.656,552.177 425.908,552.177ZM428.533,577.636C429.943,577.636 430.43,580.182 429.617,583.293C428.803,586.405 427.65,588.951 427.053,588.951C426.457,588.951 425.968,586.405 425.968,583.293C425.968,580.182 427.122,577.636 428.533,577.636Z" style="fill:rgb(191,97,106);fill-rule:nonzero;"/>
                    </g>
                    <g>
                        <g id="path1676" transform="matrix(2.07941,0,0,2.07941,711.747,204.439)">
                            <path d="M658.698,397.297C604.708,399.931 554.58,428.786 524.133,474.755C522.249,477.599 520.448,480.497 518.733,483.446C530.452,507.318 536.558,533.697 536.559,560.451C536.558,560.847 536.556,561.244 536.553,561.64C536.865,561.393 537.178,561.147 537.492,560.902C570.994,534.717 612.776,521.616 654.649,524.167C672.218,483.554 673.67,438.056 658.698,397.297Z" style="fill:none;fill-rule:nonzero;stroke:rgb(191,97,106);stroke-width:6.96px;stroke-linecap:butt;stroke-miterlimit:4;"/>
                        </g>
                        <g transform="matrix(2.07941,0,0,2.07941,711.747,204.439)">
                            <path d="M577.662,250.943C544.643,266.599 517.384,292.907 500.084,325.817C523.686,356.098 536.559,393.799 536.559,432.642C536.559,442.135 535.79,451.611 534.261,460.972C556.242,433.92 585.716,414.098 618.691,404.193C618.957,402.958 619.21,401.72 619.45,400.48C629.806,346.922 614.624,291.703 578.738,252.118L577.662,250.943Z" style="fill:none;stroke:rgb(191,97,106);stroke-width:6.96px;stroke-linecap:butt;stroke-miterlimit:4;"/>
                        </g>
                        <g transform="matrix(2.07941,0,0,2.07941,711.747,204.439)">
                            <path d="M577.662,250.943C544.643,266.599 517.384,292.907 500.084,325.817C523.686,356.098 536.559,393.799 536.559,432.642C536.559,442.135 535.79,451.611 534.261,460.972C556.242,433.92 585.716,414.098 618.691,404.193C618.957,402.958 619.21,401.72 619.45,400.48C629.806,346.922 614.624,291.703 578.738,252.118L577.662,250.943Z" style="fill:none;stroke:rgb(191,97,106);stroke-width:6.96px;stroke-linecap:butt;stroke-miterlimit:4;"/>
                        </g>
                        <g id="path1662" transform="matrix(2.07941,0,0,2.07941,711.747,204.439)">
                            <path d="M467.143,293.757L467.143,421.567C488.942,437.587 506.648,458.822 518.735,483.444C520.449,480.496 522.25,477.598 524.133,474.754C527.284,469.999 530.664,465.399 534.261,460.973C535.79,451.612 536.559,442.135 536.559,432.642C536.559,377.55 510.664,325.74 467.143,293.757Z" style="fill:none;fill-rule:nonzero;stroke:rgb(191,97,106);stroke-width:6.96px;stroke-linecap:butt;stroke-linejoin:miter;stroke-miterlimit:4;"/>
                        </g>
                        <g id="path1653" transform="matrix(2.07941,0,0,2.07941,711.747,204.439)">
                            <path d="M467.143,421.567L467.143,699.334C467.144,699.334 467.144,699.335 467.145,699.335C468.358,698.444 469.559,697.535 470.748,696.609C470.62,644.554 494.977,594.6 536.556,561.642C536.559,561.245 536.561,560.848 536.562,560.451C536.561,505.359 510.666,453.55 467.146,421.567L467.143,421.567Z" style="fill:none;fill-rule:nonzero;stroke:rgb(191,97,106);stroke-width:6.96px;stroke-linecap:butt;stroke-linejoin:miter;stroke-miterlimit:4;"/>
                        </g>
                        <g id="path1672" transform="matrix(2.07941,0,0,2.07941,711.747,204.439)">
                            <path d="M470.819,701.124C469.215,647.139 494.088,594.83 537.493,560.902C580.899,526.976 637.666,515.472 689.666,530.065C691.27,584.05 666.397,636.359 622.992,670.287C579.586,704.213 522.819,715.717 470.819,701.124Z" style="fill:none;fill-rule:nonzero;stroke:rgb(191,97,106);stroke-width:6.96px;stroke-linecap:butt;stroke-miterlimit:4;"/>
                        </g>
                        <g id="path1858" transform="matrix(2.07941,0,0,2.07941,711.747,204.439)">
                            <path d="M471.313,682.466L467.143,683.612L467.143,770.001C472.703,798.837 483.142,849.277 483.142,849.277L500.269,848.395C500.269,848.395 493.964,817.44 489.943,776.527C487.281,779.942 485.764,782.333 485.764,782.333L479.531,755.751C479.531,755.751 483.473,752.194 487.698,748.05C487.686,747.871 487.675,747.693 487.665,747.513C486.092,720.037 495.96,710.129 506.109,707.039C494.13,706.329 482.299,704.346 470.818,701.124C470.634,694.911 470.799,688.682 471.313,682.466L471.313,682.466ZM525.807,707.06C525.48,707.078 525.154,707.096 524.827,707.112C525.69,707.343 526.252,707.524 526.252,707.524L526.251,707.521L525.807,707.06Z" style="fill:none;fill-rule:nonzero;stroke:rgb(191,97,106);stroke-width:6.96px;stroke-linecap:butt;stroke-linejoin:miter;stroke-miterlimit:4;"/>
                        </g>
                        <g id="path1900" transform="matrix(2.07941,0,0,2.07941,711.747,204.439)">
                            <path d="M485.763,782.334C485.763,782.334 498.308,762.414 515.645,754.722C532.947,747.009 550.891,743.717 550.891,743.717C550.891,743.717 500.289,734.132 495.168,740.184C490.074,746.251 479.531,755.752 479.531,755.752" style="fill:none;fill-rule:nonzero;stroke:rgb(191,97,106);stroke-width:6.96px;stroke-miterlimit:4;"/>
                        </g>
                        <g id="path1664" transform="matrix(2.07941,0,0,2.07941,711.747,204.439)">
                            <path d="M466.549,135.373L467.143,293.757C479.498,302.837 490.582,313.625 500.084,325.818C509.44,308.021 521.771,292.034 536.503,278.602C536.54,277.134 536.559,275.665 536.559,274.197C536.559,219.105 510.602,167.356 467.082,135.373L466.549,135.373Z" style="fill:none;fill-rule:nonzero;stroke:rgb(191,97,106);stroke-width:6.96px;stroke-linecap:square;stroke-linejoin:miter;stroke-miterlimit:4;"/>
                        </g>
                    </g>
                </g>
            </g>
        </g>
        <g transform="matrix(1,0,0,1,2.84217e-14,2.28365)">
            <path d="M899.903,1498.53L1262.86,1499.64" style="fill:none;stroke:rgb(243,222,225);stroke-width:12.5px;stroke-linecap:butt;"/>
        </g>
        <g transform="matrix(1,0,0,1,2103.17,1.1703)">
            <path d="M899.903,1498.53L1262.86,1499.64" style="fill:none;stroke:rgb(243,222,225);stroke-width:12.5px;stroke-linecap:butt;"/>
        </g>
        <g transform="matrix(1,0,0,1,2.84217e-14,301.776)">
            <path d="M899.903,1498.53L1262.86,1499.64" style="fill:none;stroke:rgb(243,222,225);stroke-width:12.5px;stroke-linecap:butt;"/>
        </g>
        <g transform="matrix(1,0,0,1,2103.17,300.662)">
            <path d="M899.903,1498.53L1262.86,1499.64" style="fill:none;stroke:rgb(243,222,225);stroke-width:12.5px;stroke-linecap:butt;"/>
        </g>
        <g transform="matrix(1.75526,0,0,2.57228,-481.831,-2486.12)">
            <text x="823.477px" y="1643.63px" style="font-family:'Helvegen';font-size:97.19px;fill:rgb(243,222,225);stroke:rgb(243,222,225);stroke-width:4.6px;stroke-linecap:butt;stroke-miterlimit:2;">E<tspan x="864.491px 910.462px " y="1643.63px 1643.63px ">ST</tspan></text>
        </g>
        <g transform="matrix(1.75526,0,0,2.57228,1628,-2486.12)">
            <text x="804.768px" y="1643.63px" style="font-family:'Helvegen';font-size:97.19px;fill:rgb(243,222,225);stroke:rgb(243,222,225);stroke-width:4.6px;stroke-linecap:butt;stroke-miterlimit:2;">2016</text>
        </g>
        <g transform="matrix(1,0,0,1,-423.118,-189.527)">
            <g transform="matrix(0.466822,0.497708,-0.729376,0.684113,2759.76,-1.50041)">
                <text x="1642.45px" y="2583.08px" style="font-family:'Helvegen';font-size:333.333px;fill:rgb(243,222,225);stroke:rgb(243,222,225);stroke-width:11.84px;stroke-linecap:butt;stroke-miterlimit:2;">D</text>
            </g>
            <g transform="matrix(0.530286,0.429456,-0.629355,0.777118,2522.2,-150.336)">
                <text x="1751.51px" y="2700.36px" style="font-family:'Helvegen';font-size:333.333px;fill:rgb(243,222,225);stroke:rgb(243,222,225);stroke-width:11.84px;stroke-linecap:butt;stroke-miterlimit:2;">o</text>
            </g>
            <g transform="matrix(0.58416,0.352694,-0.516863,0.856068,2230.22,-258.913)">
                <text x="1878.28px" y="2803.74px" style="font-family:'Helvegen';font-size:333.333px;fill:rgb(243,222,225);stroke:rgb(243,222,225);stroke-width:11.84px;stroke-linecap:butt;stroke-miterlimit:2;">v</text>
            </g>
            <g transform="matrix(0.624365,0.275327,-0.403483,0.914987,1922.65,-309.885)">
                <text x="2017.03px" y="2887.3px" style="font-family:'Helvegen';font-size:333.333px;fill:rgb(243,222,225);stroke:rgb(243,222,225);stroke-width:11.84px;stroke-linecap:butt;stroke-miterlimit:2;">e</text>
            </g>
            <g transform="matrix(0.655344,0.190157,-0.27867,0.960387,1562.56,-292.261)">
                <text x="2150.86px" y="2947.04px" style="font-family:'Helvegen';font-size:333.333px;fill:rgb(243,222,225);stroke:rgb(243,222,225);stroke-width:11.84px;stroke-linecap:butt;stroke-miterlimit:2;">r</text>
            </g>
            <g transform="matrix(0.670458,0.126971,-0.186072,0.982536,1315.29,-240.258)">
                <text x="2303.39px" y="2989.31px" style="font-family:'Helvegen';font-size:333.333px;fill:rgb(243,222,225);stroke:rgb(243,222,225);stroke-width:11.84px;stroke-linecap:butt;stroke-miterlimit:2;">,</text>
            </g>
            <g transform="matrix(0.682375,-0.000270508,0.000396422,1,784.89,0.669715)">
                <text x="2474.89px" y="3016.54px" style="font-family:'Helvegen';font-size:333.333px;fill:rgb(243,222,225);stroke:rgb(243,222,225);stroke-width:11.84px;stroke-linecap:butt;stroke-miterlimit:2;">D</text>
            </g>
            <g transform="matrix(0.676915,-0.0861536,0.126255,0.991998,470.549,251.165)">
                <text x="2635.15px" y="3016.34px" style="font-family:'Helvegen';font-size:333.333px;fill:rgb(243,222,225);stroke:rgb(243,222,225);stroke-width:11.84px;stroke-linecap:butt;stroke-miterlimit:2;">e</text>
            </g>
            <g transform="matrix(0.660612,-0.170961,0.250538,0.968107,192.407,570.919)">
                <text x="2780.16px" y="2998.12px" style="font-family:'Helvegen';font-size:333.333px;fill:rgb(243,222,225);stroke:rgb(243,222,225);stroke-width:11.84px;stroke-linecap:butt;stroke-miterlimit:2;">l</text>
            </g>
            <g transform="matrix(0.63102,-0.25971,0.380597,0.924741,-47.8335,982.575)">
                <text x="2925.16px" y="2961.55px" style="font-family:'Helvegen';font-size:333.333px;fill:rgb(243,222,225);stroke:rgb(243,222,225);stroke-width:11.84px;stroke-linecap:butt;stroke-miterlimit:2;">a</text>
            </g>
            <g transform="matrix(0.57632,-0.365365,0.535431,0.844579,-249.331,1576.33)">
                <text x="3079.68px" y="2902.58px" style="font-family:'Helvegen';font-size:333.333px;fill:rgb(243,222,225);stroke:rgb(243,222,225);stroke-width:11.84px;stroke-linecap:butt;stroke-miterlimit:2;">w</text>
            </g>
            <g transform="matrix(0.514745,-0.447966,0.656481,0.754343,-243.833,2146.63)">
                <text x="3264.85px" y="2784.73px" style="font-family:'Helvegen';font-size:333.333px;fill:rgb(243,222,225);stroke:rgb(243,222,225);stroke-width:11.84px;stroke-linecap:butt;stroke-miterlimit:2;">a</text>
            </g>
            <g transform="matrix(0.449881,-0.513072,0.751892,0.659287,-148.468,2650.97)">
                <text x="3389.09px" y="2677.08px" style="font-family:'Helvegen';font-size:333.333px;fill:rgb(243,222,225);stroke:rgb(243,222,225);stroke-width:11.84px;stroke-linecap:butt;stroke-miterlimit:2;">r</text>
            </g>
            <g transform="matrix(0.381667,-0.565656,0.828951,0.559321,39.9518,3103.29)">
                <text x="3493.56px" y="2557.73px" style="font-family:'Helvegen';font-size:333.333px;fill:rgb(243,222,225);stroke:rgb(243,222,225);stroke-width:11.84px;stroke-linecap:butt;stroke-miterlimit:2;">e</text>
            </g>
        </g>
        <g transform="matrix(1,0,0,1,-191.651,41.9397)">
            <g transform="matrix(0.328584,-0.598054,0.87643,0.481529,-95.8545,1507.64)">
                <text x="1457.87px" y="1226.22px" style="font-family:'Helvegen';font-size:333.333px;fill:rgb(243,222,225);stroke:rgb(243,222,225);stroke-width:11.84px;stroke-linecap:butt;stroke-miterlimit:2;">R</text>
            </g>
            <g transform="matrix(0.395959,-0.555745,0.814427,0.580266,1.90982,1311.42)">
                <text x="1513.64px" y="1120.28px" style="font-family:'Helvegen';font-size:333.333px;fill:rgb(243,222,225);stroke:rgb(243,222,225);stroke-width:11.84px;stroke-linecap:butt;stroke-miterlimit:2;">e</text>
            </g>
            <g transform="matrix(0.461608,-0.502548,0.736468,0.676472,88.2262,1124.31)">
                <text x="1573.71px" y="1030.66px" style="font-family:'Helvegen';font-size:333.333px;fill:rgb(243,222,225);stroke:rgb(243,222,225);stroke-width:11.84px;stroke-linecap:butt;stroke-miterlimit:2;">d</text>
            </g>
            <g transform="matrix(0.523983,-0.437125,0.640593,0.767881,185.472,940.624)">
                <text x="1653.24px" y="938.969px" style="font-family:'Helvegen';font-size:333.333px;fill:rgb(243,222,225);stroke:rgb(243,222,225);stroke-width:11.84px;stroke-linecap:butt;stroke-miterlimit:2;">T</text>
            </g>
            <g transform="matrix(0.556929,-0.394292,0.577823,0.816162,281.546,848.4)">
                <text x="1752.38px" y="856.462px" style="font-family:'Helvegen';font-size:333.333px;fill:rgb(243,222,225);stroke:rgb(243,222,225);stroke-width:11.84px;stroke-linecap:butt;stroke-miterlimit:2;">i</text>
            </g>
            <g transform="matrix(0.596807,-0.330844,0.484841,0.874602,325.983,697.197)">
                <text x="1796.06px" y="821.246px" style="font-family:'Helvegen';font-size:333.333px;fill:rgb(243,222,225);stroke:rgb(243,222,225);stroke-width:11.84px;stroke-linecap:butt;stroke-miterlimit:2;">d</text>
            </g>
            <g transform="matrix(0.631616,-0.258258,0.378469,0.925614,412.713,547.638)">
                <text x="1901.51px" y="760.356px" style="font-family:'Helvegen';font-size:333.333px;fill:rgb(243,222,225);stroke:rgb(243,222,225);stroke-width:11.84px;stroke-linecap:butt;stroke-miterlimit:2;">e</text>
            </g>
            <g transform="matrix(0.666382,-0.14687,0.215234,0.976562,528.721,315.881)">
                <text x="2038.52px" y="703.259px" style="font-family:'Helvegen';font-size:333.333px;fill:rgb(243,222,225);stroke:rgb(243,222,225);stroke-width:11.84px;stroke-linecap:butt;stroke-miterlimit:2;">H</text>
            </g>
            <g transform="matrix(0.679881,-0.0582948,0.0854292,0.996344,633.739,128.344)">
                <text x="2159.4px" y="673.396px" style="font-family:'Helvegen';font-size:333.333px;fill:rgb(243,222,225);stroke:rgb(243,222,225);stroke-width:11.84px;stroke-linecap:butt;stroke-miterlimit:2;">o</text>
            </g>
            <g transform="matrix(0.680988,0.0434922,-0.0637365,0.997967,770.516,-97.9937)">
                <text x="2283.89px" y="657.842px" style="font-family:'Helvegen';font-size:333.333px;fill:rgb(243,222,225);stroke:rgb(243,222,225);stroke-width:11.84px;stroke-linecap:butt;stroke-miterlimit:2;">m</text>
            </g>
            <g transform="matrix(0.670158,0.128548,-0.188383,0.982096,928.056,-300.903)">
                <text x="2433.49px" y="665.602px" style="font-family:'Helvegen';font-size:333.333px;fill:rgb(243,222,225);stroke:rgb(243,222,225);stroke-width:11.84px;stroke-linecap:butt;stroke-miterlimit:2;">e</text>
            </g>
            <g transform="matrix(0.649458,0.20938,-0.306839,0.951761,1099.72,-498.758)">
                <text x="2539.41px" y="682.93px" style="font-family:'Helvegen';font-size:333.333px;fill:rgb(243,222,225);stroke:rgb(243,222,225);stroke-width:11.84px;stroke-linecap:butt;stroke-miterlimit:2;">B</text>
            </g>
            <g transform="matrix(0.617786,0.289787,-0.424673,0.905347,1318.18,-700.934)">
                <text x="2652.8px" y="716.427px" style="font-family:'Helvegen';font-size:333.333px;fill:rgb(243,222,225);stroke:rgb(243,222,225);stroke-width:11.84px;stroke-linecap:butt;stroke-miterlimit:2;">r</text>
            </g>
            <g transform="matrix(0.579596,0.360146,-0.527782,0.84938,1565.33,-879.567)">
                <text x="2762.4px" y="765.486px" style="font-family:'Helvegen';font-size:333.333px;fill:rgb(243,222,225);stroke:rgb(243,222,225);stroke-width:11.84px;stroke-linecap:butt;stroke-miterlimit:2;">e</text>
            </g>
            <g transform="matrix(0.510382,0.452931,-0.663756,0.747949,1941.37,-1089.12)">
                <text x="2858.74px" y="816.086px" style="font-family:'Helvegen';font-size:333.333px;fill:rgb(243,222,225);stroke:rgb(243,222,225);stroke-width:11.84px;stroke-linecap:butt;stroke-miterlimit:2;">w</text>
            </g>
            <g transform="matrix(0.44566,0.516743,-0.757271,0.653101,2368.52,-1223.23)">
                <text x="2995.05px" y="935.26px" style="font-family:'Helvegen';font-size:333.333px;fill:rgb(243,222,225);stroke:rgb(243,222,225);stroke-width:11.84px;stroke-linecap:butt;stroke-miterlimit:2;">e</text>
            </g>
            <g transform="matrix(0.379116,0.567369,-0.831461,0.555582,2748.62,-1289.47)">
                <text x="3067.74px" y="1014.97px" style="font-family:'Helvegen';font-size:333.333px;fill:rgb(243,222,225);stroke:rgb(243,222,225);stroke-width:11.84px;stroke-linecap:butt;stroke-miterlimit:2;">r</text>
            </g>
            <g transform="matrix(0.297294,0.614209,-0.900104,0.435675,3206.25,-1299.34)">
                <text x="3137.66px" y="1112.54px" style="font-family:'Helvegen';font-size:333.333px;fill:rgb(243,222,225);stroke:rgb(243,222,225);stroke-width:11.84px;stroke-linecap:butt;stroke-miterlimit:2;">y</text>
            </g>
        </g>
    </g>
</svg>
